<svg width="32" height="32" viewBox="0 0 32 32" fill="none" xmlns="http://www.w3.org/2000/svg">
<g clip-path="url(#clip0_208_5971)">
<path d="M11.5885 27.0294L11.0371 30.3475H9.93444L9.38281 27.0294V3.87957C9.38281 3.57505 9.62967 3.32812 9.93425 3.32812H11.0371C11.3416 3.32812 11.5885 3.57499 11.5885 3.87957V27.0294Z" fill="#D7D3E0"/>
<path d="M17.1022 27.0294L16.5507 30.3475H15.4481L14.8965 27.0294V3.87957C14.8965 3.57505 15.1433 3.32812 15.4479 3.32812H16.5507C16.8553 3.32812 17.1022 3.57499 17.1022 3.87957V27.0294Z" fill="#D7D3E0"/>
<path d="M22.6178 27.0294L22.0664 29.7961H20.9636L20.4121 27.0294V3.87957C20.4121 3.57505 20.659 3.32812 20.9636 3.32812H22.0664C22.3709 3.32812 22.6178 3.57499 22.6178 3.87957V27.0294Z" fill="#D7D3E0"/>
<path d="M20.4121 27.0312L20.98 31.5763C21.0413 31.8218 21.2619 31.994 21.5149 31.994C21.768 31.994 21.9885 31.8218 22.0499 31.5763L22.6178 27.0312H20.4121Z" fill="#7F6E5D"/>
<path d="M11.5899 27.0312L11.022 31.5749C10.9606 31.8204 10.7401 31.9926 10.4871 31.9926C10.234 31.9926 10.0135 31.8204 9.95218 31.5749L9.5 27.0409" fill="#A7A1B2"/>
<path d="M30.283 3.27873L25.21 8.34627C25.0776 8.47864 24.9453 8.61094 24.824 8.73781H24.8185C24.5538 9.01353 24.3002 9.28369 24.0685 9.53736C21.1515 12.719 20.5339 14.5828 20.5339 14.5828V14.5883L19.8586 15.454L16.5527 12.1464L17.4129 11.4673V11.4618C17.4129 11.4618 19.2767 10.8442 22.4584 7.9272C22.712 7.69557 22.9822 7.44197 23.2579 7.17174C23.3847 7.05044 23.5171 6.91807 23.6495 6.78577L28.7225 1.71823L29.2248 1.11719L30.8895 2.77145L30.283 3.27873Z" fill="#CB8252"/>
<path d="M24.8171 8.73787C24.5524 9.0136 24.2988 9.28376 24.0671 9.53743C24.0561 9.53193 24.0506 9.52088 24.0396 9.51538L22.4791 7.95488C22.4736 7.94382 22.4625 7.93832 22.457 7.92733C22.7107 7.69571 22.9809 7.4421 23.2566 7.17188L23.2621 7.17737L24.8171 8.73787Z" fill="#805333"/>
<path d="M31.8373 2.49931L31.0598 3.28231C30.9568 3.38556 30.8169 3.44359 30.6711 3.44359C30.5252 3.44359 30.3854 3.38556 30.2824 3.28231L28.7218 1.7218C28.5068 1.50511 28.5068 1.1555 28.7218 0.938804L29.4994 0.161301C29.716 -0.0537668 30.0657 -0.0537668 30.2824 0.161301L30.6683 0.552832L31.0599 0.938804L31.4514 1.33034L31.8374 1.72187C31.9406 1.82487 31.9986 1.96473 31.9986 2.11059C31.9986 2.25644 31.9405 2.3963 31.8373 2.49931Z" fill="#805333"/>
<path d="M14.8984 27.0312L15.4663 31.5763C15.5276 31.8218 15.7482 31.994 16.0013 31.994C16.2543 31.994 16.4749 31.8218 16.5362 31.5763L17.1041 27.0312H14.8984Z" fill="#7F6E5D"/>
<path d="M20.4121 27.0312L20.98 31.5763C21.0413 31.8218 21.2619 31.994 21.5149 31.994C21.768 31.994 21.9885 31.8218 22.0499 31.5763L22.6178 27.0312H20.4121Z" fill="#A7A1B2"/>
<path d="M20.9193 16.538L20.412 17.0453L11.5893 25.868L10.8284 26.6289L10.4259 27.0315L7.32691 30.1304L6.10278 31.3545C5.69095 31.77 5.13007 32.0038 4.54502 32.0038C3.95998 32.0038 3.39916 31.7701 2.98727 31.3545L0.649262 29.0166C0.233744 28.6047 0 28.0438 0 27.4588C0 26.8737 0.233744 26.3129 0.649262 25.901L15.4658 11.0845C15.6706 10.8756 15.9508 10.7578 16.2433 10.7578C16.5358 10.7578 16.816 10.8756 17.0208 11.0845L20.412 14.4757L20.5333 14.597L20.9193 14.983C21.1283 15.1877 21.2461 15.468 21.2461 15.7605C21.2461 16.053 21.1283 16.3333 20.9193 16.538Z" fill="#FAC176"/>
<path d="M20.1418 14.1973L14.6938 18.0903L4.5478 28.2364C4.33036 28.4495 3.98224 28.4495 3.7648 28.2364C3.66155 28.1333 3.60352 27.9935 3.60352 27.8476C3.60352 27.7018 3.66155 27.5619 3.7648 27.4589L13.8998 17.3239L17.8038 11.8594L20.1418 14.1973Z" fill="#F18D46"/>
<path d="M11.9539 20.0469L11.9043 20.0965Z" fill="#F18D46"/>
<path d="M14.8984 27.0312L15.4663 31.5763C15.5276 31.8218 15.7482 31.994 16.0013 31.994C16.2543 31.994 16.4749 31.8218 16.5362 31.5763L17.1041 27.0312H14.8984Z" fill="#A7A1B2"/>
<path d="M9.38407 2.21094H22.6181C23.2272 2.21094 23.7209 2.70466 23.7209 3.31376C23.7209 3.92286 23.2271 4.41658 22.6181 4.41658H9.38407C8.77497 4.41658 8.28125 3.92286 8.28125 3.31376C8.28125 2.70472 8.77497 2.21094 9.38407 2.21094Z" fill="#A7A1B2"/>
</g>
<defs>
<clipPath id="clip0_208_5971">
<rect width="32" height="32" fill="white"/>
</clipPath>
</defs>
</svg>