<svg width="24" height="24" viewBox="0 0 24 24" fill="none" xmlns="http://www.w3.org/2000/svg">
<g clip-path="url(#clip0_208_5948)">
<path d="M9.2334 0.708008C12.7011 -0.139716 16.3665 0.651827 19.1748 2.85547C21.983 5.05907 23.6239 8.43049 23.625 12V12.001C23.6292 14.0132 23.1072 15.9922 22.1104 17.7402L22.1094 17.7412C21.9729 17.9822 21.8291 18.2182 21.6738 18.4492L21.6709 18.4531C21.504 18.7083 21.3234 18.9542 21.1309 19.1904L21.125 19.1982C20.9513 19.4233 20.76 19.6466 20.5625 19.8643C20.4445 19.9924 20.3234 20.118 20.1992 20.2412L19.8193 20.6035C19.5834 20.8196 19.3368 21.0273 19.083 21.2178L19.082 21.2168L19.0723 21.2246C18.8943 21.3677 18.7067 21.5015 18.5117 21.6357C18.2345 21.8205 17.9541 21.9929 17.666 22.1562H17.6641L17.5801 22.2021C17.0458 22.4936 16.4891 22.7424 15.916 22.9473L15.9141 22.9482C15.4935 23.1014 15.0631 23.2269 14.626 23.3232H14.625L14.6201 23.3252C14.1589 23.4345 13.6905 23.5118 13.2188 23.5566L13.1992 23.5586L13.1797 23.5625C13.1646 23.5655 13.1503 23.5666 13.1377 23.5674L13.127 23.5684C12.7529 23.6047 12.3798 23.625 12 23.625C5.57983 23.625 0.375 18.4202 0.375 12L0.382812 11.5605C0.421255 10.537 0.593703 9.52212 0.895508 8.54199C1.05023 8.05337 1.23677 7.57521 1.45312 7.11035V7.10938C1.63822 6.71093 1.84441 6.32244 2.07129 5.94629L2.08008 5.93359L2.08691 5.92285C2.42299 5.3748 2.80484 4.85626 3.22852 4.37305L3.23145 4.36914C3.46222 4.09795 3.70937 3.84 3.9707 3.59766L3.98145 3.58789L3.98633 3.58301C4.35187 3.22685 4.744 2.89865 5.15918 2.60156L5.16309 2.59863C5.41658 2.41248 5.67912 2.23641 5.94824 2.06738L5.94922 2.06836C6.08931 1.98433 6.23109 1.90243 6.375 1.82422L6.81152 1.59863L6.81934 1.59473C7.05575 1.47135 7.29858 1.36089 7.5459 1.26074H7.54785L7.61719 1.23145C7.88446 1.11977 8.15543 1.02099 8.43359 0.933594L8.43652 0.932617C8.69677 0.848468 8.96523 0.771893 9.23242 0.708008H9.2334Z" fill="#E8E4F0" stroke="#352D42" stroke-width="0.75"/>
<path d="M10.0668 12.4667C9.93846 12.2775 9.6812 12.2283 9.49205 12.3566C9.30291 12.4848 9.25365 12.7422 9.38201 12.9314C9.69237 13.3886 10.0304 13.8367 10.3858 14.2624C10.4792 14.3805 10.6291 14.4385 10.7776 14.4142C10.9259 14.3898 11.0495 14.2867 11.1001 14.145C11.1508 14.0033 11.1204 13.8453 11.021 13.7325C10.683 13.3273 10.3618 12.9015 10.0668 12.4667Z" fill="#D9008D"/>
<path d="M7.79199 10.0075C8.00586 10.5173 8.24719 11.0228 8.51324 11.5104C8.58373 11.6403 8.71832 11.7228 8.86608 11.7267C9.01385 11.7305 9.15246 11.6553 9.22973 11.5293C9.307 11.4033 9.31121 11.2455 9.24071 11.1157C8.98858 10.6513 8.75988 10.1747 8.55554 9.68764C8.4671 9.47688 8.22467 9.37746 8.01373 9.4659C7.80298 9.55415 7.70374 9.79658 7.79199 10.0075Z" fill="#D9008D"/>
<path d="M6.98395 5.54459H7.02533C7.13464 5.53415 7.23535 5.48068 7.30529 5.39591C7.37506 5.31113 7.40838 5.202 7.39776 5.09269C7.34723 4.57468 7.32196 4.04643 7.32159 3.50828C7.32141 3.39934 7.27746 3.29497 7.19964 3.21861C7.12201 3.14208 7.0169 3.09996 6.90796 3.10161C6.67798 3.10491 6.49359 3.29259 6.49414 3.52238C6.49414 4.07279 6.52106 4.62852 6.57434 5.17307C6.59595 5.38327 6.77264 5.54349 6.98395 5.54459Z" fill="#D9008D"/>
<path d="M6.81861 6.82306C6.92719 7.36871 7.06324 7.9085 7.2262 8.44042C7.27949 8.61437 7.43989 8.73302 7.62171 8.73302C7.66273 8.73284 7.70356 8.7268 7.74292 8.71489C7.84803 8.68267 7.93592 8.61034 7.98737 8.5133C8.039 8.41643 8.04981 8.30291 8.01776 8.19799C7.86286 7.69262 7.73359 7.17956 7.63032 6.6612C7.58564 6.43708 7.36774 6.29151 7.14362 6.33618C6.91932 6.38086 6.77394 6.59876 6.81861 6.82306Z" fill="#D9008D"/>
<path d="M13.9912 17.0056C13.9311 17.0975 13.91 17.2095 13.9327 17.3168C13.9553 17.4243 14.0195 17.5183 14.1115 17.5783C14.5762 17.8812 15.0607 18.1646 15.5519 18.4191C15.7541 18.5197 15.9996 18.4396 16.1036 18.2393C16.2076 18.0388 16.1316 17.792 15.933 17.6847C15.4662 17.4426 15.0057 17.174 14.5659 16.8844C14.4736 16.8237 14.3612 16.8025 14.2532 16.8254C14.1453 16.8481 14.0509 16.9129 13.9912 17.0056Z" fill="#D9008D"/>
<path d="M11.5111 14.9022C11.351 15.0652 11.3534 15.3272 11.5164 15.4873C11.9108 15.8751 12.3299 16.2479 12.7624 16.5954C12.9406 16.7393 13.2015 16.7115 13.3454 16.5333C13.4893 16.3552 13.4615 16.0943 13.2833 15.9503C12.8721 15.6193 12.4735 15.2652 12.0983 14.8967C12.0199 14.8193 11.9137 14.7763 11.8035 14.7774C11.6933 14.7783 11.588 14.8233 11.5111 14.9022Z" fill="#D9008D"/>
<path d="M16.838 18.5732C16.7974 18.6752 16.7989 18.7893 16.8423 18.8902C16.8856 18.9911 16.9673 19.0706 17.0695 19.1112C17.5866 19.3168 18.1137 19.4963 18.6489 19.6492C18.6857 19.66 18.7242 19.6653 18.7627 19.6653C18.9694 19.6657 19.1446 19.5135 19.1732 19.309C19.2019 19.1043 19.0752 18.9098 18.8765 18.8534C18.3708 18.7089 17.8656 18.5368 17.3756 18.342C17.1634 18.2574 16.9226 18.361 16.838 18.5732Z" fill="#D9008D"/>
<path d="M12.5715 21.0801C12.7059 21.1442 12.8644 21.1312 12.9864 21.0459C13.1085 20.9608 13.1755 20.8167 13.1618 20.6683C13.1479 20.5202 13.0556 20.3908 12.9199 20.3294C12.4285 20.1011 11.9489 19.8477 11.4833 19.5701C11.2868 19.4531 11.0328 19.5175 10.9158 19.714C10.7988 19.9103 10.8631 20.1644 11.0596 20.2814C11.5497 20.5731 12.0544 20.8395 12.5715 21.0801Z" fill="#D9008D"/>
<path d="M8.8749 17.6319C8.76577 17.5321 8.6116 17.4982 8.47079 17.5427C8.3298 17.5874 8.22323 17.7036 8.19137 17.8481C8.15951 17.9924 8.20712 18.1429 8.31625 18.2427C8.73739 18.6276 9.17775 18.9909 9.63588 19.3309C9.70674 19.3845 9.79317 19.4136 9.88197 19.4136C10.0601 19.4136 10.2182 19.2997 10.2745 19.1307C10.3309 18.9617 10.2727 18.7757 10.1303 18.6688C9.69466 18.3445 9.27553 17.9984 8.8749 17.6319Z" fill="#D9008D"/>
<path d="M15.9867 21.3888C15.459 21.2655 14.9381 21.1156 14.4256 20.9394C14.2849 20.8878 14.1275 20.9162 14.0138 21.0136C13.9 21.1108 13.8479 21.2621 13.8772 21.4089C13.9065 21.5558 14.0128 21.6753 14.1553 21.7215C14.6945 21.9073 15.2431 22.0655 15.7985 22.1952C16.0186 22.2413 16.235 22.1032 16.2863 21.8844C16.3374 21.6654 16.2044 21.4459 15.9867 21.3897V21.3888Z" fill="#D9008D"/>
<path d="M5.67407 14.4123C5.7691 14.3572 5.83831 14.2668 5.86633 14.1606C5.89453 14.0546 5.87951 13.9416 5.8244 13.8467C5.55212 13.3771 5.3042 12.8937 5.08154 12.3984C4.98431 12.1962 4.74353 12.1085 4.53882 12.2006C4.33429 12.2927 4.24036 12.5313 4.32734 12.7382C4.56153 13.2586 4.82227 13.7669 5.10882 14.2606C5.22363 14.4579 5.4765 14.5251 5.67407 14.4107V14.4123Z" fill="#D9008D"/>
<path d="M6.71099 15.2076C6.57311 15.0338 6.32299 14.9994 6.14336 15.1298C5.96392 15.26 5.91906 15.5086 6.04174 15.6934C6.37664 16.1554 6.73479 16.5999 7.11473 17.0255C7.26689 17.1959 7.52855 17.2108 7.69902 17.0586C7.86949 16.9063 7.88432 16.6448 7.73216 16.4743C7.37071 16.0695 7.02977 15.6467 6.71099 15.2076Z" fill="#D9008D"/>
<path d="M3.37772 8.17192C3.39383 8.17211 3.40995 8.17101 3.42588 8.16899C3.53482 8.15654 3.63443 8.10124 3.70255 8.01519C3.77084 7.92913 3.80216 7.81963 3.78952 7.71068C3.72672 7.17181 3.69119 6.63018 3.68314 6.08765C3.67728 5.86041 3.49106 5.67914 3.26365 5.67969C3.15378 5.68115 3.04923 5.72638 2.97269 5.80493C2.89615 5.88367 2.85404 5.9895 2.85551 6.09936C2.86356 6.66955 2.90037 7.23919 2.96573 7.80571C2.9899 8.015 3.16733 8.17247 3.37772 8.17192Z" fill="#D9008D"/>
<path d="M3.56499 9.002C3.34178 9.05125 3.20079 9.27208 3.25005 9.49528C3.37364 10.0528 3.52562 10.6038 3.70524 11.1458C3.76146 11.3152 3.91966 11.4292 4.098 11.4292C4.14231 11.4294 4.18626 11.4223 4.22837 11.4082C4.33256 11.3737 4.4188 11.2992 4.46806 11.2011C4.51731 11.1029 4.52555 10.9894 4.49113 10.8852C4.32011 10.3702 4.17582 9.84666 4.05864 9.31694C4.03502 9.20964 3.96965 9.11625 3.87718 9.05711C3.78453 8.99815 3.67229 8.97819 3.56499 9.002Z" fill="#D9008D"/>
</g>
<defs>
<clipPath id="clip0_208_5948">
<rect width="24" height="24" fill="white"/>
</clipPath>
</defs>
</svg>