<svg width="24" height="24" viewBox="0 0 24 24" fill="none" xmlns="http://www.w3.org/2000/svg"><g clip-path="url(#clip0)"><path d="M15.8702 15.2501L12.5002 13.2501V8.72014C12.5002 8.32014 12.1802 8.00014 11.7802 8.00014H11.7203C11.3203 8.00014 11.0002 8.32014 11.0002 8.72014V13.4401C11.0002 13.7901 11.1802 14.1201 11.4902 14.3001L15.1403 16.4901C15.4803 16.6901 15.9203 16.5901 16.1203 16.2501C16.3303 15.9001 16.2202 15.4501 15.8702 15.2501ZM21.1803 5.01014L18.1003 2.45014C17.6803 2.10014 17.0503 2.15014 16.6903 2.58014C16.3403 3.00014 16.4002 3.63014 16.8202 3.99014L19.8902 6.55014C20.3102 6.90014 20.9402 6.85014 21.3002 6.42014C21.6602 6.00014 21.6003 5.37014 21.1803 5.01014ZM4.10025 6.55014L7.17025 3.99014C7.60025 3.63014 7.66025 3.00014 7.30025 2.58014C6.95025 2.15014 6.32025 2.10014 5.90025 2.45014L2.82025 5.01014C2.40025 5.37014 2.34025 6.00014 2.70025 6.42014C3.05025 6.85014 3.68025 6.90014 4.10025 6.55014ZM12.0002 4.00014C7.03025 4.00014 3.00025 8.03014 3.00025 13.0001C3.00025 17.9701 7.03025 22.0001 12.0002 22.0001C16.9702 22.0001 21.0002 17.9701 21.0002 13.0001C21.0002 8.03014 16.9702 4.00014 12.0002 4.00014ZM12.0002 20.0001C8.14025 20.0001 5.00025 16.8601 5.00025 13.0001C5.00025 9.14014 8.14025 6.00014 12.0002 6.00014C15.8602 6.00014 19.0002 9.14014 19.0002 13.0001C19.0002 16.8601 15.8602 20.0001 12.0002 20.0001Z" fill="#A7A1B2"/></g><defs><clipPath id="clip0"><rect width="24" height="24" fill="white"/></clipPath></defs></svg>