<svg width="17" height="24" viewBox="0 0 17 24" fill="none" xmlns="http://www.w3.org/2000/svg">
<path d="M4.8 22.8C4.8 23.46 5.34 24 6 24H10.8C11.46 24 12 23.46 12 22.8V21.6H4.8V22.8ZM8.4 0C3.768 0 0 3.768 0 8.4C0 11.256 1.428 13.764 3.6 15.288V18C3.6 18.66 4.14 19.2 4.8 19.2H12C12.66 19.2 13.2 18.66 13.2 18V15.288C15.372 13.764 16.8 11.256 16.8 8.4C16.8 3.768 13.032 0 8.4 0ZM10.8 14.04V16.8H6V14.04C4.176 12.756 2.4 11.436 2.4 8.4C2.4 5.088 5.088 2.4 8.4 2.4C11.712 2.4 14.4 5.088 14.4 8.4C14.4 11.388 12.588 12.78 10.8 14.04Z" fill="#D92B90"/>
</svg>