<svg width="32" height="32" viewBox="0 0 32 32" fill="none" xmlns="http://www.w3.org/2000/svg"><rect width="32" height="32" rx="16" fill="#E8E4F0"/><path d="M22.4323 18.9109L20.17 18.6526C19.6267 18.5903 19.0923 18.7773 18.7093 19.1603L17.0704 20.7992C14.5498 19.5166 12.4834 17.4591 11.2008 14.9295L12.8486 13.2818C13.2316 12.8988 13.4186 12.3644 13.3563 11.821L13.098 9.57652C12.9911 8.67692 12.234 8 11.3255 8H9.78464C8.77817 8 7.94092 8.83725 8.00327 9.84372C8.47533 17.4502 14.5587 23.5247 22.1562 23.9967C23.1627 24.0591 23.9999 23.2218 23.9999 22.2154V20.6745C24.0088 19.7749 23.3319 19.0178 22.4323 18.9109Z" fill="#352D42"/></svg>