<svg width="32" height="32" viewBox="0 0 32 32" fill="none" xmlns="http://www.w3.org/2000/svg"><rect width="32" height="32" rx="16" fill="#E8E4F0"/><path d="M23.6001 14.2334L17.7667 8.40008C17.2898 7.94757 16.6575 7.69531 16.0001 7.69531C15.3427 7.69531 14.7103 7.94757 14.2334 8.40008L8.40008 14.2334C7.93191 14.7022 7.66895 15.3376 7.66895 16.0001C7.66895 16.6626 7.93191 17.298 8.40008 17.7667L14.2334 23.6001C14.7022 24.0682 15.3376 24.3312 16.0001 24.3312C16.6626 24.3312 17.298 24.0682 17.7667 23.6001L23.6001 17.7667C24.0682 17.298 24.3312 16.6626 24.3312 16.0001C24.3312 15.3376 24.0682 14.7022 23.6001 14.2334ZM22.4251 16.5917L16.5917 22.4251C16.2659 22.7509 15.7343 22.7509 15.4084 22.4251L9.57508 16.5917C9.24918 16.2659 9.24918 15.7343 9.57508 15.4084L15.4084 9.57508C15.7343 9.24918 16.2659 9.24918 16.5917 9.57508L22.4251 15.4084C22.7509 15.7343 22.7509 16.2659 22.4251 16.5917ZM17.8417 13.7417C17.5159 13.4159 17.0 13.4159 16.6584 13.7417L16.9084 15.1667H13.9167C13.4564 15.1667 13.0834 15.5397 13.0834 16.0001V17.6667C13.0834 18.1271 13.4564 18.5001 13.9167 18.5001C14.3771 18.5001 14.7501 18.1271 14.7501 17.6667V16.8334H16.9084L16.6584 17.0751C16.3325 17.4009 16.3325 17.9326 16.6584 18.2584C16.9843 18.5843 17.516 18.5843 17.8417 18.2584L19.5084 16.5917C19.8343 16.2659 19.8343 15.7343 19.5084 15.4084L17.8417 13.7417Z" fill="#352D42"/></svg>