<svg width="48" height="48" viewBox="0 0 48 48" fill="none" xmlns="http://www.w3.org/2000/svg">
<circle cx="24" cy="24" r="24" fill="#FFE5F6"/>
<path d="M13.0508 19.6543C13.099 21.4029 13.8161 22.9321 14.9365 24.2441C14.9694 24.2831 15.0023 24.3221 15.0361 24.3623C15.1913 24.5422 15.3546 24.7033 15.5361 24.8564C15.6247 24.9316 15.7095 25.0101 15.7949 25.0889C16.4999 25.7122 17.3059 26.208 18.1563 26.6074C18.2125 26.6339 18.2693 26.6613 18.3252 26.6885C19.1544 27.0912 20.0625 27.3955 20.9678 27.5684C21.0032 27.5754 21.0387 27.5826 21.0752 27.5898C21.106 27.5954 21.1372 27.6007 21.1689 27.6064C21.2449 27.6339 21.2454 27.6342 21.3311 27.7627C21.3568 27.8543 21.3806 27.9467 21.4033 28.0391C21.6117 28.7829 22.1091 29.339 22.7754 29.7158C23.4329 30.0401 24.1536 30.083 24.8496 29.8662C25.5296 29.6096 26.0918 29.1579 26.4131 28.4951C26.5171 28.2549 26.5967 28.0182 26.6494 27.7617C26.6952 27.6776 26.6957 27.6777 26.7998 27.6299C26.9613 27.5898 27.1231 27.5496 27.2852 27.5117C28.9417 27.1199 30.5111 26.4255 31.8447 25.3594C31.8678 25.3412 31.8913 25.3234 31.915 25.3047C32.1648 25.1079 32.3977 24.9028 32.6172 24.6729C32.8315 24.4585 32.8322 24.4587 32.9033 24.3936C34.1407 23.2275 34.8671 21.4213 34.9307 19.7432C34.9327 19.6699 34.9335 19.5967 34.9346 19.5234H34.9775C34.9815 21.0706 34.9845 22.6179 34.9863 24.165C34.9865 24.3479 34.9871 24.531 34.9873 24.7139C34.9874 24.7682 34.9872 24.7686 34.9873 24.8242C34.9881 25.4127 34.9896 26.0014 34.9912 26.5898C34.9928 27.1943 34.9938 27.7989 34.9941 28.4033C34.9944 28.7757 34.9947 29.1481 34.9961 29.5205C34.997 29.7765 34.9973 30.0331 34.9971 30.2891C34.997 30.4364 34.9971 30.5841 34.998 30.7314C35.0042 31.8705 35.0047 31.871 34.8066 32.3975C34.7946 32.4296 34.7819 32.462 34.7695 32.4951C34.4688 33.2202 33.8842 33.8237 33.1758 34.1572C32.8027 34.306 32.4361 34.4203 32.0322 34.4209H31.6631C31.5948 34.421 31.5263 34.4217 31.458 34.4219C31.27 34.4223 31.0816 34.4218 30.8936 34.4219C30.6908 34.422 30.4879 34.4225 30.2852 34.4229C29.7953 34.4237 29.3053 34.4244 28.8154 34.4248C28.5847 34.425 28.3538 34.4256 28.123 34.4258C27.3556 34.4265 26.5878 34.4264 25.8203 34.4268C25.6213 34.4268 25.4217 34.4277 25.2227 34.4277C25.1484 34.4278 25.148 34.4277 25.0723 34.4277C24.2708 34.4281 23.4694 34.4293 22.668 34.4307C21.8447 34.4321 21.0206 34.4325 20.1973 34.4326C19.7354 34.4327 19.2734 34.4335 18.8115 34.4346C18.418 34.4355 18.0244 34.436 17.6309 34.4355H16.4766C16.4103 34.4354 16.3436 34.436 16.2773 34.4365C15.3172 34.4435 14.5417 34.1258 13.8467 33.458C13.3608 32.9522 12.9998 32.2505 13 31.5371V31.1123C12.9999 30.9734 13.0008 30.8342 13.001 30.6953V29.4668C13.0013 29.0913 13.0019 28.7153 13.002 28.3398C13.0021 27.7308 13.0016 27.1217 13.002 26.5127C13.0023 25.921 13.0028 25.329 13.0029 24.7373V24.0781C13.0034 22.5601 13.0049 21.0415 13.0059 19.5234H13.0488C13.0494 19.5666 13.0502 19.6098 13.0508 19.6543ZM25.4932 25.832C25.4932 27.8974 25.4933 27.8973 25.0566 28.3779C24.7351 28.672 24.3476 28.8184 23.9121 28.8037C23.4538 28.7514 23.0895 28.5762 22.7949 28.2188C22.2977 27.5312 22.4893 26.6379 22.4893 25.832H25.4932ZM25.9912 15C26.7138 15.0044 27.317 15.2937 27.8252 15.7969C28.6543 16.6747 28.541 17.686 28.541 18.8789H33.6904C33.6904 20.9211 33.2512 22.3123 31.8447 23.7715C31.817 23.8014 31.7893 23.8315 31.7607 23.8623C30.545 25.14 28.487 26.1925 26.7383 26.3887C26.7374 26.3539 26.7362 26.319 26.7354 26.2832C26.7313 26.1244 26.7264 25.9654 26.7217 25.8066C26.7197 25.7247 26.7198 25.7244 26.7178 25.6406C26.7095 25.3754 26.7227 25.1367 26.6309 24.8867C26.6167 24.8443 26.5878 24.8007 26.5664 24.7578C26.4086 24.6632 26.262 24.6238 26.0791 24.623H25.8369C25.7714 24.6218 25.7712 24.6224 25.7041 24.6221C25.5582 24.6214 25.4116 24.6213 25.2656 24.6211C25.1645 24.6208 25.0631 24.6204 24.9619 24.6201C24.7497 24.6197 24.5374 24.6193 24.3252 24.6191C24.0529 24.6189 23.7801 24.6174 23.5078 24.6162C23.2986 24.6154 23.0891 24.6153 22.8799 24.6152C22.7794 24.6151 22.6786 24.6148 22.5781 24.6143C22.4378 24.6135 22.2975 24.614 22.1572 24.6143H22.0313C21.8161 24.6146 21.6744 24.5863 21.5029 24.6719C21.4601 24.6933 21.4384 24.7151 21.417 24.7578C21.2845 25.1087 21.2655 25.442 21.2588 25.8145C21.2573 25.8697 21.2554 25.9255 21.2539 25.9824C21.2504 26.1177 21.2476 26.2533 21.2451 26.3887C19.3334 26.0282 17.6026 25.1352 16.1816 23.8145C16.1509 23.7866 16.1195 23.7582 16.0879 23.7295C15.5726 23.2414 15.1663 22.6445 14.8506 22.0117C14.8368 21.9841 14.8228 21.9561 14.8086 21.9277C14.3127 20.9174 14.293 20.0288 14.293 18.8789H19.4424V17.334C19.6023 16.5344 19.9173 15.8838 20.6064 15.4189C20.9759 15.1924 21.3943 15.0124 21.833 15.0107H22.0811C22.1262 15.0096 22.1713 15.009 22.2178 15.0088C22.3674 15.0082 22.5174 15.008 22.667 15.0078C22.7712 15.0076 22.8753 15.0071 22.9795 15.0068C23.1982 15.0064 23.4171 15.006 23.6357 15.0059C23.9151 15.0056 24.1952 15.0051 24.4746 15.0039C24.6901 15.0031 24.9056 15.003 25.1211 15.0029C25.224 15.0028 25.3268 15.0025 25.4297 15.002C25.5742 15.0012 25.7188 15.0007 25.8633 15.001C25.9052 15.0006 25.948 15.0004 25.9912 15ZM25.2148 16.3125C25.1169 16.3123 25.0189 16.3118 24.9209 16.3115C24.716 16.3111 24.5106 16.3123 24.3057 16.3135C24.0443 16.3149 23.7829 16.314 23.5215 16.3125C23.3191 16.3116 23.1164 16.3118 22.9141 16.3125C22.8178 16.3127 22.7212 16.3121 22.625 16.3115C22.0221 16.3086 21.5229 16.3069 21.0732 16.7627C20.6001 17.443 20.7734 17.9985 20.7734 18.8789H27.21C27.2529 17.7419 27.2747 17.2696 26.8291 16.6807C26.3416 16.2713 25.8202 16.3087 25.2148 16.3125Z" fill="#D9008D"/>
</svg>