<svg width="64" height="64" viewBox="0 0 64 64" fill="none" xmlns="http://www.w3.org/2000/svg">
<path d="M49.7483 44.7648H45.7969C45.1231 44.7648 44.5781 44.2195 44.5781 43.5461C44.5781 42.8726 45.1231 42.3273 45.7969 42.3273H49.7483C51.7643 42.3273 53.4045 40.6871 53.4045 38.6711V26.8086C53.4045 26.1351 53.9498 25.5898 54.6233 25.5898C55.2968 25.5898 55.842 26.1351 55.842 26.8086V38.6711C55.842 42.0309 53.1081 44.7648 49.7483 44.7648Z" fill="#ABA7B4"/>
<path d="M44.875 5.60156H25.375C23.3517 5.60156 21.7188 7.2345 21.7188 9.25781V23.8828C21.7188 25.4672 22.7423 26.8323 24.1562 27.3198V43.5453C24.1562 45.5683 25.7892 47.2016 27.8125 47.2016H42.4375C44.4608 47.2016 46.0937 45.5683 46.0937 43.5453V27.3198C47.5077 26.8323 48.5312 25.4672 48.5312 23.8828V9.25781C48.5312 7.2345 46.8983 5.60156 44.875 5.60156Z" fill="#C6C3CC"/>
<path d="M48.5291 9.25781V23.8828C48.5291 25.4672 47.5056 26.8323 46.0916 27.3198V43.5453C46.0916 45.5683 44.4587 47.2016 42.4354 47.2016H34.9766V5.60156H44.8729C46.8962 5.60156 48.5291 7.2345 48.5291 9.25781Z" fill="#C6C3CC"/>
<path d="M27.6641 11.6953H42.2891V21.4453H27.6641V11.6953Z" fill="#DCD8E2"/>
<path d="M34.9766 11.6953H42.2891V21.4453H34.9766V11.6953Z" fill="#DCD8E2"/>
<path d="M31.3203 26.3203C31.3203 26.9935 30.7747 27.5391 30.1016 27.5391C29.4284 27.5391 28.8828 26.9935 28.8828 26.3203C28.8828 25.6471 29.4284 25.1016 30.1016 25.1016C30.7747 25.1016 31.3203 25.6471 31.3203 26.3203Z" fill="#ABA7B4"/>
<path d="M36.1953 26.3203C36.1953 27.0027 35.6589 27.5391 34.9766 27.5391C34.2942 27.5391 33.7578 27.0027 33.7578 26.3203C33.7578 25.6376 34.2942 25.1016 34.9766 25.1016C35.6589 25.1016 36.1953 25.6376 36.1953 26.3203Z" fill="#ABA7B4"/>
<path d="M41.0703 26.3203C41.0703 26.9935 40.5247 27.5391 39.8516 27.5391C39.1784 27.5391 38.6328 26.9935 38.6328 26.3203C38.6328 25.6471 39.1784 25.1016 39.8516 25.1016C40.5247 25.1016 41.0703 25.6471 41.0703 26.3203Z" fill="#ABA7B4"/>
<path d="M36.1953 26.3203C36.1953 27.0027 35.6589 27.5391 34.9766 27.5391V25.1016C35.6589 25.1016 36.1953 25.6376 36.1953 26.3203Z" fill="#ABA7B4"/>
<path d="M41.0703 36.2326C41.0703 39.5962 38.3405 42.3263 34.9766 42.3263C31.6129 42.3263 28.8828 39.5962 28.8828 36.2326C28.8828 33.2832 30.9791 30.8457 33.7578 30.2852L34.9766 31.7232L36.1953 30.2852C36.2442 30.2852 36.2927 30.2852 36.3416 30.3096C39.0473 30.919 41.0703 33.332 41.0703 36.2326Z" fill="#DCD8E2"/>
<path d="M38.6605 17.1079L36.223 21.9588H34.0292C33.8829 21.6176 33.8585 21.252 34.0292 20.9105L36.4667 16.0355C36.7835 15.4261 37.5147 15.1824 38.0997 15.475C38.709 15.7918 38.9531 16.523 38.6605 17.1079Z" fill="#8D858A"/>
<path d="M38.6573 17.1079L36.2198 21.9588H34.9766V19.0094L36.4635 16.0355C36.7802 15.4261 37.5115 15.1824 38.0964 15.475C38.7058 15.7918 38.9499 16.523 38.6573 17.1079Z" fill="#8D858A"/>
<path d="M41.0703 36.2326C41.0703 39.5962 38.3405 42.3263 34.9766 42.3263V31.7232L36.1953 30.2852C36.2442 30.2852 36.2927 30.2852 36.3416 30.3096C39.0473 30.919 41.0703 33.332 41.0703 36.2326Z" fill="#DCD8E2"/>
<path d="M42.2891 10.4766H27.6641C26.9817 10.4766 26.4453 11.0126 26.4453 11.6953V21.4453C26.4453 22.1277 26.9817 22.6641 27.6641 22.6641H42.2891C42.9714 22.6641 43.5078 22.1277 43.5078 21.4453V11.6953C43.5078 11.0126 42.9714 10.4766 42.2891 10.4766ZM41.0703 20.2266H28.8828V12.9141H41.0703V20.2266Z" fill="#ABA7B4"/>
<path d="M43.5078 11.6953V21.4453C43.5078 22.1277 42.9714 22.6641 42.2891 22.6641H34.9766V20.2266H41.0703V12.9141H34.9766V10.4766H42.2891C42.9714 10.4766 43.5078 11.0126 43.5078 11.6953Z" fill="#ABA7B4"/>
<path d="M36.1953 30.2869V36.2344C36.1953 36.9167 35.6589 37.4531 34.9766 37.4531C34.2942 37.4531 33.7578 36.9167 33.7578 36.2344V30.2869C33.8067 30.2625 33.8552 30.2381 33.9041 30.2381C34.2453 30.1651 34.6109 30.1406 34.9766 30.1406C35.3911 30.1406 35.8056 30.1892 36.1953 30.2869Z" fill="#ABA7B4"/>
<path d="M34.9766 30.1406C35.3911 30.1406 35.8056 30.1892 36.1953 30.2869V36.2344C36.1953 36.9167 35.6589 37.4531 34.9766 37.4531V30.1406Z" fill="#ABA7B4"/>
<path d="M54.7339 12.9142C54.2549 12.9142 53.8672 12.369 53.8672 11.6955V6.82049C53.8672 6.147 54.2549 5.89062 54.7339 5.89062C55.2128 5.89062 55.6005 6.147 55.6005 6.82049V11.6955C55.6005 12.369 55.2128 12.9142 54.7339 12.9142Z" fill="#8D858A"/>
<path d="M53.4062 27.6V19.0078C53.4062 18.3343 53.9515 17.7891 54.625 17.7891C55.2985 17.7891 55.8438 18.3343 55.8438 19.0078V27.6H53.4062Z" fill="#ABA7B4"/>
<path d="M54.625 20.2266C52.609 20.2266 50.9688 18.5863 50.9688 16.5703V11.6953C50.9688 11.0218 51.514 10.4766 52.1875 10.4766H57.0625C57.736 10.4766 58.2812 11.0218 58.2812 11.6953V16.5703C58.2812 18.5863 56.641 20.2266 54.625 20.2266Z" fill="#C6C3CC"/>
<path d="M20.7992 58.4016C12.8463 58.4016 6.39922 51.9545 6.39922 44.0016C6.39922 36.0487 12.8463 29.6016 20.7992 29.6016C28.7521 29.6016 35.1992 36.0487 35.1992 44.0016C35.1992 51.9545 28.7521 58.4016 20.7992 58.4016Z" fill="#008043"/>
<g clip-path="url(#clip0_271_6112)">
<path d="M28.5469 45.5452H26.6569C26.3426 45.5452 26.0663 45.754 25.9805 46.0564L25.5684 47.5069L23.8999 42.1927C23.8134 41.9156 23.5652 41.7209 23.2762 41.7019C22.9852 41.6857 22.7152 41.8425 22.5921 42.1048L19.8035 48.0539L18.1357 44.9349C18.0049 44.6909 17.7497 44.551 17.4649 44.565C17.1872 44.5854 16.9488 44.7668 16.8546 45.0277L14.523 51.4943L12.008 39.8133C11.9426 39.5103 11.6866 39.2853 11.3766 39.2606C11.0714 39.2325 10.7782 39.416 10.665 39.705L8.37914 45.5452H7.45312C7.0643 45.5452 6.75 45.8602 6.75 46.2483C6.75 46.6364 7.0643 46.9514 7.45312 46.9514H8.85938C9.14836 46.9514 9.40852 46.7742 9.51469 46.5042L11.1248 42.3903L13.6652 54.188C13.7313 54.4946 13.9929 54.7203 14.3051 54.7414C14.3212 54.7421 14.3374 54.7428 14.3522 54.7428C14.6468 54.7428 14.9126 54.5585 15.0131 54.278L17.6407 46.9901L19.2248 49.9524C19.35 50.1865 19.6095 50.337 19.8633 50.3236C20.1291 50.3166 20.3688 50.1605 20.4813 49.9193L23.0991 44.3351L24.9307 50.1703C25.0242 50.4671 25.2991 50.6667 25.6113 50.6625C25.9221 50.6583 26.1928 50.4502 26.2779 50.1514L27.1884 46.9514H28.5469C28.9357 46.9514 29.25 46.6364 29.25 46.2483C29.25 45.8602 28.9357 45.5452 28.5469 45.5452Z" fill="#FAF9FC"/>
</g>
<defs>
<clipPath id="clip0_271_6112">
<rect width="22.5" height="22.5" fill="white" transform="translate(6.75 35.75)"/>
</clipPath>
</defs>
</svg>