<svg width="96" height="96" viewBox="0 0 96 96" fill="none" xmlns="http://www.w3.org/2000/svg">
<circle cx="48" cy="48" r="48" fill="#F1E5FF"/>
<path d="M34.8965 45.2607C34.8965 45.2607 39.2546 44.7189 45.8067 39.5077C52.3585 34.2968 55.9044 26.8909 56.6364 26.9975C57.0002 27.0505 60.6523 25.5903 65.8495 39.6666C71.0467 53.7429 68.0289 56.5275 66.5208 56.3539C65.3079 56.2142 57.2735 53.1375 52.0643 53.2376C46.8552 53.3381 39.9777 55.3996 39.9777 55.3996L34.8965 45.2607Z" fill="#6D17CE"/>
<path d="M27.0601 55.6069L29.3889 55.1098L28.1292 52.0469L26.1602 53.028L27.0601 55.6069Z" fill="#3F3249"/>
<path d="M27.3304 51.971L28.191 54.5582L28.7266 55.8602C29.4611 57.6459 31.4649 58.5444 33.2867 57.9046L42.7376 55.2479L38.6774 43.2812L29.2887 47.2403C27.4459 48.0098 26.5708 50.1237 27.3304 51.971Z" fill="#2C2333"/>
<path d="M32.7429 51.9788L32.079 58.3889L33.5295 58.844L37.3237 70.5755L42.4129 67.6381C42.4129 67.6381 38.9939 62.5204 39.213 60.2604C39.432 58.0004 40.6946 58.2739 40.6946 58.2739L40.1065 54.2902L32.7429 51.9788Z" fill="#2C2333"/>
<path d="M64.871 41.0608C67.4433 48.563 68.3825 54.0087 66.734 54.5739C65.0854 55.139 61.8187 49.2646 59.2464 41.7624C56.6745 34.2602 55.5804 29.0649 57.2289 28.5001C58.8778 27.9349 62.2988 33.5585 64.871 41.0608Z" fill="white"/>
<path d="M55.202 31.3984C55.18 31.4002 55.2006 31.7455 55.257 32.3699C55.3166 32.9936 55.3988 33.8983 55.534 35.0125C55.6403 35.5649 55.7565 36.1683 55.8807 36.815C55.944 37.1394 56.0097 37.4745 56.0771 37.8192C56.1112 37.9918 56.1456 38.1669 56.1803 38.3444C56.2195 38.5209 56.276 38.6957 56.3245 38.8749C56.5267 39.5897 56.739 40.3396 56.9588 41.1167C57.0142 41.3111 57.0699 41.5071 57.1263 41.7046C57.1803 41.9031 57.2653 42.093 57.3341 42.2897C57.4803 42.6809 57.6286 43.0775 57.7785 43.4789C57.9292 43.8804 58.0782 44.2767 58.2247 44.6678C58.3018 44.8615 58.363 45.0606 58.4517 45.246C58.5391 45.4322 58.6258 45.6169 58.7118 45.7995C59.0565 46.5302 59.3891 47.2354 59.706 47.9076C59.7875 48.0744 59.8597 48.2433 59.9461 48.4022C60.0365 48.5594 60.1256 48.7142 60.2134 48.867C60.3895 49.1721 60.5604 49.4683 60.7256 49.7548C61.0568 50.3248 61.3661 50.8566 61.6492 51.3437C62.2777 52.2705 62.8088 53.0046 63.1731 53.5137C63.5401 54.0211 63.7517 54.2956 63.7699 54.2832C63.7882 54.2708 63.6114 53.9726 63.276 53.4438C62.9275 52.9045 62.438 52.1473 61.8367 51.2172C61.5663 50.7276 61.2708 50.1934 60.9543 49.6203C60.7951 49.3338 60.6303 49.0376 60.4607 48.7328C60.3757 48.5804 60.2894 48.426 60.202 48.2694C60.1184 48.1109 60.0486 47.9416 59.9695 47.7751C59.6599 47.105 59.3351 46.4019 58.9987 45.6733C58.9144 45.491 58.8291 45.3076 58.7431 45.1226C58.6554 44.9385 58.5955 44.7404 58.5192 44.5477C58.374 44.1594 58.2268 43.7655 58.0778 43.3668C57.9285 42.9684 57.7806 42.5746 57.6351 42.1865C57.566 41.9915 57.481 41.803 57.4266 41.6062C57.3699 41.4101 57.3135 41.2158 57.2577 41.0231C57.0331 40.2533 56.8164 39.5099 56.6096 38.8013C56.5598 38.6238 56.5016 38.4507 56.4603 38.276C56.4235 38.1002 56.3871 37.9268 56.351 37.7559C56.2787 37.4143 56.2085 37.082 56.1404 36.761C56.0028 36.1201 55.8745 35.5226 55.7569 34.9753C55.5997 33.8814 55.472 32.9908 55.3809 32.3565C55.2866 31.7383 55.224 31.3967 55.202 31.3984Z" fill="#2C2333"/>
<path d="M42.7393 55.2374C42.7421 55.2494 42.5907 55.2969 42.3142 55.3719C42.0025 55.4534 41.6097 55.5566 41.1422 55.6791C40.1518 55.935 38.7861 56.2966 37.2818 56.7114C35.7772 57.127 34.4146 57.5067 33.4201 57.7527C32.9234 57.8765 32.5192 57.9694 32.2388 58.0276C31.9581 58.0853 31.802 58.1115 31.7989 58.0994C31.7961 58.0874 31.9468 58.0382 32.222 57.9598C32.5319 57.8721 32.9224 57.7616 33.3874 57.6299C34.4077 57.3402 35.7497 56.9594 37.234 56.5384C38.74 56.1228 40.1129 55.7802 41.1119 55.5556C41.6114 55.4431 42.0166 55.3568 42.2983 55.3034C42.5801 55.2498 42.7366 55.2253 42.7393 55.2374Z" fill="#3F3249"/>
<path d="M37.1833 53.2806C37.1915 53.303 36.8403 53.4567 36.26 53.6738C35.68 53.8908 34.8702 54.1681 33.9652 54.4385C33.0594 54.7085 32.2301 54.9208 31.6264 55.0573C31.0223 55.1939 30.6442 55.2579 30.6387 55.2348C30.6329 55.2101 31.0003 55.1024 31.5951 54.9349C32.1898 54.7673 33.0109 54.5365 33.9139 54.2672C34.8166 53.9975 35.6298 53.7402 36.2191 53.5541C36.808 53.368 37.1743 53.2565 37.1833 53.2806Z" fill="#3F3249"/>
<path d="M35.6829 50.555C35.6974 50.6025 34.3919 51.0386 32.7679 51.5295C31.1432 52.0208 29.815 52.3802 29.8009 52.3328C29.7865 52.2853 31.0916 51.8491 32.7163 51.3579C34.3399 50.867 35.6685 50.5075 35.6829 50.555Z" fill="#3F3249"/>
<path d="M34.2168 47.9288C34.2367 47.9743 33.1249 48.5044 31.7345 49.1132C30.3433 49.7221 29.1999 50.1789 29.18 50.1335C29.16 50.0881 30.2714 49.558 31.6626 48.9491C33.0534 48.3406 34.1968 47.8838 34.2168 47.9288Z" fill="#3F3249"/>
</svg>