<svg width="108" height="108" viewBox="0 0 108 108" fill="none" xmlns="http://www.w3.org/2000/svg">
<path d="M26.452 76.1596C27.4296 75.6894 27.7889 74.863 27.1171 73.4661L21.9842 62.7941C21.3123 61.3973 20.4424 61.1621 19.4648 61.6322C18.487 62.1025 18.1277 62.9289 18.7996 64.3258L23.9324 74.9978C24.6042 76.3947 25.4742 76.6299 26.452 76.1596ZM86.0641 65.5983L82.7627 64.4806C82.69 64.456 82.6342 64.3973 82.6132 64.3234L81.6623 60.9703C81.6096 60.7845 81.3667 60.7398 81.2513 60.8946L79.1682 63.689C79.1223 63.7505 79.0491 63.7855 78.9725 63.7826L75.4896 63.6508C75.2966 63.6435 75.179 63.8606 75.2906 64.0183L77.3045 66.863C77.3489 66.9256 77.3595 67.006 77.3331 67.078L76.1314 70.3497C76.0648 70.531 76.2351 70.71 76.4195 70.6526L79.7473 69.6163C79.8205 69.5935 79.9002 69.6082 79.9606 69.6555L82.7008 71.8094C82.8527 71.9287 83.0755 71.8222 83.0779 71.629L83.1206 68.1439C83.1216 68.0672 83.1602 67.9959 83.2239 67.9532L86.1192 66.0126C86.2796 65.905 86.247 65.6602 86.0641 65.5983ZM66.3687 12.0565C65.2027 11.6681 64.0212 11.367 62.8152 11.1574C61.614 10.934 60.4233 10.6372 59.2012 10.5607C57.9838 10.4704 56.7641 10.2559 55.5496 10.267L51.8748 10.258L48.2349 10.6084C47.0093 10.7388 45.8262 11.0539 44.6267 11.263C43.4138 11.4442 42.261 11.8702 41.0821 12.2176C39.9036 12.542 38.7468 12.9357 37.634 13.4453C36.5213 13.9548 35.3423 14.3022 34.2916 14.9416L31.0735 16.6977L28.0385 18.7651C27.0285 19.442 26.1441 20.3097 25.1971 21.0704C24.2183 21.8123 23.402 22.7272 22.5405 23.5953C21.6609 24.4493 20.8401 25.3548 20.1102 26.331C19.3621 27.293 18.5321 28.203 17.911 29.2639C17.2674 30.3014 16.5144 31.2771 15.9526 32.3666L14.2585 35.6165L12.8745 39.0144C12.4406 40.1567 12.1531 41.3429 11.7785 42.5139C11.372 43.6659 11.2402 44.8917 10.9757 46.0784C10.6927 47.2739 10.5701 48.4953 10.4662 49.7078C10.3207 50.9287 10.2075 52.1456 10.2552 53.3653C10.2799 54.5846 10.1618 55.8153 10.3338 57.0325C10.3532 57.2398 10.377 57.4564 10.3963 57.6638C10.4892 58.6681 10.5635 59.6813 10.7209 60.6775L11.4355 64.2684C11.7321 65.4603 12.1259 66.617 12.4688 67.7867C12.7654 68.9786 13.3443 70.0696 13.7844 71.2042C14.2197 72.3525 14.7478 73.4564 15.3686 74.5159C15.9757 75.5706 16.4619 76.706 17.2037 77.6848C17.8992 78.6859 18.5527 79.7184 19.2946 80.6973L21.6419 83.5072C22.3188 84.2549 23.0609 84.9486 23.7847 85.6512C23.9339 85.7964 24.0876 85.9508 24.2369 86.0961C25.0767 86.9939 26.1089 87.6742 27.0428 88.4587C27.9625 89.2612 28.981 89.9367 30.0229 90.5897C31.0321 91.2697 32.0599 91.9407 33.1684 92.4707C34.2582 93.0094 35.2953 93.676 36.4473 94.0826C37.5941 94.5257 38.6981 95.0463 39.8598 95.4254L43.3739 96.4802L46.9673 97.2007C48.1681 97.4471 49.4004 97.4731 50.612 97.6231C51.8277 97.8053 53.0571 97.7302 54.2757 97.7515C55.4937 97.7957 56.7139 97.725 57.9308 97.5761C59.1473 97.4501 60.3718 97.3887 61.5637 97.0921C62.7503 96.8323 63.9809 96.6882 65.1417 96.3267L68.656 95.2611L72.0427 93.8575C73.1999 93.4408 74.2102 92.7409 75.3053 92.1943C76.4003 91.6477 77.4328 90.9941 78.425 90.2801C79.4353 89.5803 80.4904 88.9501 81.3927 88.1195C82.3082 87.3168 83.296 86.5935 84.1667 85.721L86.7193 83.0978L89.0229 80.2403C89.7892 79.2923 90.3921 78.2174 91.0858 77.213C91.7932 76.2135 92.3093 75.1002 92.8848 74.0155C93.4829 72.9543 93.9898 71.8454 94.4192 70.6938C94.8806 69.5612 95.3738 68.4475 95.6798 67.2524C95.9947 66.0758 96.4609 64.9294 96.6569 63.7185C96.8846 62.5266 97.1584 61.3355 97.3406 60.1199L97.7077 56.4788C97.7613 55.2562 97.7229 54.0321 97.7397 52.8043C97.7771 51.977 97.6855 51.1659 97.5894 50.3455C97.5503 49.9538 97.5066 49.5529 97.4768 49.1569C97.4016 47.9275 97.1511 46.7364 96.9053 45.5316C96.687 44.3365 96.4506 43.1272 96.0474 41.975C95.663 40.8138 95.4172 39.609 94.9077 38.4962L93.4905 35.1046L91.7437 31.882C91.1971 30.787 90.4132 29.8395 89.7504 28.8115C89.1018 27.7652 88.3132 26.8316 87.5197 25.9116C86.7359 24.9642 85.9658 24.0217 85.0558 23.1917C84.7662 22.9198 84.4815 22.6343 84.2011 22.358C83.6226 21.7684 83.0486 21.188 82.381 20.698C81.4145 19.9406 80.4856 19.1424 79.5001 18.4169L76.4349 16.4178C75.374 15.7967 74.2748 15.2624 73.1995 14.6825C72.1382 14.0844 70.9531 13.7279 69.8395 13.2348C68.7167 12.723 67.5401 12.4081 66.3687 12.0565ZM96.6488 52.8358C96.6279 54.0313 96.6623 55.2232 96.614 56.4091L96.2529 59.9674C96.076 61.1464 95.8118 62.3101 95.5845 63.479C95.3982 64.6624 94.9466 65.7677 94.6321 66.9213C94.345 68.0845 93.8523 69.1752 93.4099 70.2759C92.9857 71.3909 92.5021 72.4771 91.9088 73.5247C91.3479 74.5682 90.8459 75.6633 90.1574 76.631C89.4734 77.6079 88.8983 78.6696 88.151 79.5857L85.9038 82.3705L83.4121 84.9304C82.5604 85.7711 81.6004 86.481 80.6991 87.2656C79.8203 88.0736 78.7929 88.6904 77.8198 89.3725C76.8509 90.0639 75.8463 90.7042 74.7791 91.2375C73.7074 91.7615 72.7201 92.4618 71.5862 92.856L68.2874 94.2289L64.8655 95.273C63.7281 95.612 62.5342 95.7613 61.3705 96.0216C60.2158 96.3004 59.0142 96.3622 57.83 96.4841C56.6454 96.629 55.462 96.7049 54.2624 96.6518C53.0807 96.6358 51.8835 96.7069 50.6952 96.5344C49.511 96.3941 48.3159 96.3502 47.1469 96.1228L43.6406 95.4178L40.2181 94.3875C39.0838 94.0181 37.998 93.5117 36.8924 93.083C35.7678 92.6862 34.7581 92.0292 33.6864 91.5046C32.6098 90.9936 31.614 90.3415 30.6229 89.6756C29.6084 89.0324 28.6125 88.3803 27.7153 87.6011C26.8089 86.8264 25.7993 86.1694 24.982 85.295C24.9369 85.2482 24.8872 85.1922 24.8328 85.1498L26.2336 84.4798C26.9568 85.2054 27.8253 85.7816 28.6095 86.4439C29.4839 87.1997 30.4388 87.8373 31.417 88.4522C32.3717 89.0898 33.3358 89.723 34.385 90.2243C35.4111 90.7252 36.3889 91.3632 37.4723 91.7454C38.546 92.1552 39.5952 92.6564 40.6883 93.0113L44.0011 94.0028L47.3792 94.6781C48.5158 94.9095 49.6698 94.9389 50.8081 95.0784C51.9504 95.25 53.1108 95.1737 54.2604 95.1938C55.4095 95.2368 56.5514 95.1694 57.7038 95.0285C58.8464 94.9151 60.002 94.8525 61.1245 94.5777C62.2373 94.3303 63.3941 94.1987 64.4948 93.8546L67.7918 92.8589L70.9885 91.5348C72.0763 91.1398 73.0354 90.4758 74.0655 89.9603C75.1 89.454 76.0677 88.8316 76.9993 88.1578C77.9492 87.4983 78.9437 86.9085 79.7899 86.1276C80.6587 85.37 81.5859 84.6871 82.405 83.8735L84.8124 81.3994L86.9797 78.7098C87.7081 77.8256 88.2594 76.8095 88.9107 75.8595C89.5895 74.9193 90.0678 73.8697 90.6097 72.8581C91.1791 71.8561 91.6531 70.7973 92.0627 69.7235C92.4954 68.6502 92.9644 67.6051 93.2462 66.4785C93.537 65.3705 93.9882 64.2883 94.1644 63.1553C94.3773 62.0274 94.6361 60.9005 94.8122 59.7675L95.1621 56.3285C95.2051 55.1794 95.1655 54.0241 95.1856 52.8747C95.2073 52.4197 95.1831 51.9639 95.1402 51.517L96.5317 50.8514C96.6076 51.5104 96.6742 52.1739 96.6488 52.8358ZM23.0289 32.7661C23.5507 31.8553 24.2771 31.086 24.9171 30.2555C25.5391 29.4109 26.2517 28.6368 27.0094 27.9094C27.7447 27.1588 28.4392 26.3705 29.2781 25.7412C30.0944 25.0885 30.8434 24.3427 31.7137 23.7554L34.3112 21.9885L37.088 20.4777C37.981 19.9138 39.0115 19.6374 39.9622 19.194C40.9128 18.7507 41.9123 18.4093 42.9243 18.1418C43.9274 17.8558 44.9184 17.4729 45.9558 17.33C46.9891 17.155 48.0015 16.8644 49.0474 16.7631L52.1757 16.4635L55.3219 16.4633C56.3753 16.4495 57.4068 16.6514 58.4543 16.7203C59.5065 16.7755 60.5275 17.0509 61.5637 17.2392C62.6003 17.4045 63.6167 17.6706 64.6091 18.0053C65.6203 18.3081 66.6322 18.5649 67.5903 19.0186C68.5486 19.4493 69.574 19.734 70.4799 20.2695C71.4004 20.764 72.3447 21.2128 73.2599 21.744L75.8931 23.4595C76.6696 24.0342 77.3944 24.6678 78.1524 25.2514L16.4539 54.766C16.4614 54.3292 16.469 53.8924 16.4537 53.4551C16.4076 52.4056 16.5132 51.3633 16.6325 50.326C16.7244 49.2789 16.8163 48.2317 17.0687 47.2105C17.3118 46.1937 17.4085 45.1328 17.7662 44.1409C18.0872 43.1438 18.3259 42.1177 18.7017 41.1399L19.889 38.2124L21.3496 35.4276C21.8259 34.4929 22.4752 33.658 23.0289 32.7661ZM21.3011 29.5117C21.7806 28.9175 22.674 28.8549 23.3 29.3534C23.9212 29.8655 24.0766 30.7146 23.6439 31.2636C23.1748 31.7843 22.3766 31.9268 21.6993 31.4642C21.0496 31.0113 20.799 30.0824 21.3011 29.5117ZM23.4451 26.8445C23.9834 26.3019 24.88 26.3176 25.4638 26.8705C26.0426 27.4372 26.1197 28.2895 25.6281 28.7868C25.1864 29.3173 24.3395 29.3577 23.7046 28.8406C23.0878 28.3377 22.9611 27.4294 23.4451 26.8445ZM25.8334 24.4024C26.3493 23.8365 27.3079 23.982 27.8219 24.5797C28.3678 25.1964 28.3169 25.9958 27.848 26.5166C27.37 27.0188 26.5016 26.9668 25.9228 26.4002C25.3483 25.8428 25.3087 24.9498 25.8334 24.4024ZM28.4251 22.1709C28.995 21.6703 29.8711 21.8098 30.3609 22.4761C30.8235 23.1097 30.7761 23.9874 30.2529 24.4428C29.7161 24.8934 28.8537 24.7588 28.3261 24.1562C27.794 23.5443 27.8464 22.6529 28.4251 22.1709ZM31.1879 20.1539C31.8163 19.728 32.6681 19.936 33.0841 20.6148C33.5137 21.2984 33.3879 22.1794 32.8152 22.5787C32.238 22.9688 31.3817 22.7515 30.9102 22.0993C30.4294 21.4516 30.5595 20.5799 31.1879 20.1539ZM34.1031 18.3604C34.7763 18.0041 35.6084 18.29 35.9731 19.0048C36.3422 19.7288 36.1342 20.5806 35.5212 20.9195C34.9037 21.2491 34.067 20.9539 33.6467 20.2658C33.2264 19.5778 33.4344 18.7259 34.1031 18.3604ZM36.5535 18.6929C36.1936 17.9646 36.4299 17.0763 37.1474 16.8129C37.8517 16.5217 38.664 16.8855 38.9731 17.6267C39.2772 18.3817 38.9962 19.2002 38.3521 19.4741C37.6995 19.7064 36.9089 19.4121 36.5535 18.6929ZM39.5801 17.3705C39.2848 16.6341 39.6033 15.7749 40.312 15.4929C41.0425 15.2802 41.8258 15.7263 42.0655 16.4893C42.3096 17.2617 41.9648 18.0423 41.2896 18.2513C40.6458 18.5022 39.8843 18.1255 39.5801 17.3705ZM42.6942 16.3026C42.4639 15.535 42.8643 14.7279 43.5903 14.506C44.3123 14.2518 45.0703 14.8353 45.2453 15.6066C45.4244 16.41 44.9942 17.0832 44.3367 17.3293C43.6709 17.5339 42.9384 17.0749 42.6942 16.3026ZM45.8916 15.4799C45.7213 14.695 46.1899 13.935 46.9284 13.787C47.6762 13.6344 48.3708 14.1571 48.4806 14.9823C48.5868 15.7523 48.1132 16.526 47.4349 16.6567C46.7516 16.8011 46.0618 16.2648 45.8916 15.4799ZM49.1348 14.9202C49.0291 14.1272 49.5566 13.4189 50.3168 13.3401C51.0724 13.2751 51.7197 13.866 51.761 14.667C51.8022 15.468 51.2791 16.1857 50.5789 16.2471C49.8831 16.3177 49.2405 15.7131 49.1348 14.9202ZM52.4148 14.6278C52.3829 13.8224 52.9738 13.175 53.728 13.1789C54.4915 13.1784 55.0873 13.8282 55.0547 14.6418C55.027 15.4416 54.4406 16.0983 53.746 16.1C53.0469 16.0923 52.4604 15.4382 52.4148 14.6278ZM55.717 14.6441C55.7544 13.8168 56.386 13.2069 57.1435 13.2891C57.901 13.3714 58.4451 14.08 58.3484 14.8786C58.2516 15.6772 57.6156 16.2778 56.9179 16.2013C56.2294 16.1203 55.6897 15.4209 55.717 14.6441ZM85.8212 73.9289C85.2175 74.7877 84.7275 75.7175 84.0556 76.5291L82.081 78.9784L79.8846 81.226C79.1493 81.9767 78.2878 82.5825 77.503 83.2772C76.7408 83.9953 75.8208 84.5266 74.9685 85.128C74.1252 85.748 73.2322 86.312 72.2905 86.7739C71.3487 87.2358 70.4823 87.8554 69.4874 88.2061L66.5684 89.4199L63.5627 90.3334C62.5592 90.6425 61.5086 90.7574 60.4881 90.9834C59.4624 91.2461 58.4222 91.2878 57.3763 91.3891C56.3345 91.5227 55.2846 91.5917 54.2367 91.5458C53.1884 91.5229 52.1336 91.6057 51.097 91.4405C50.0551 91.3119 48.9976 91.2935 47.971 91.0777L44.8862 90.4673L41.8618 89.5544C40.8647 89.2334 39.916 88.7753 38.9382 88.3995C37.9415 88.0556 37.0549 87.4651 36.1106 87.0163C35.1526 86.5626 34.2842 85.9863 33.4113 85.4007C32.5287 84.8426 31.6465 84.2614 30.8583 83.5669C30.5275 83.2806 30.187 83.0216 29.8422 82.7535L91.5409 53.2388C91.5196 54.1951 91.558 55.1571 91.5137 56.113L91.2015 59.2491C91.0362 60.2857 90.7975 61.3119 90.6048 62.3387C90.4532 63.3802 90.0313 64.3572 89.7653 65.3736C89.5128 66.3949 89.0822 67.3533 88.6834 68.3307C88.3211 69.3132 87.8905 70.2717 87.3686 71.1825C86.8649 72.1074 86.4386 73.075 85.8212 73.9289ZM87.6656 77.0935C87.2586 77.7441 86.3874 77.853 85.7199 77.3631C85.0979 76.8969 84.8921 76.0377 85.2611 75.4508C85.6393 74.8595 86.5061 74.7412 87.1886 75.1671C87.8711 75.593 88.0814 76.4614 87.6656 77.0935ZM85.6124 79.8311C85.1421 80.4209 84.2672 80.4746 83.6602 79.9442C83.0579 79.4002 82.9166 78.533 83.3494 77.984C83.7867 77.4443 84.6615 77.3906 85.3061 77.8802C85.9555 78.3561 86.0919 79.237 85.6124 79.8311ZM83.3462 82.3857C82.8077 82.9283 81.9252 82.8945 81.3742 82.3145C80.8187 81.7253 80.7557 80.8549 81.2474 80.3575C81.7346 79.8508 82.6216 79.8939 83.2194 80.4287C83.8172 80.9635 83.8709 81.8383 83.3462 82.3857ZM80.8719 84.7435C80.2931 85.2256 79.4074 85.1134 78.9031 84.4884C78.3989 83.8632 78.4141 82.9896 78.951 82.539C79.4829 82.1021 80.3824 82.2189 80.9152 82.7848C81.4889 83.3883 81.4599 84.257 80.8719 84.7435ZM78.2172 86.8911C77.5888 87.3171 76.7091 87.1224 76.2561 86.4614C75.8079 85.7865 75.9103 84.9282 76.4874 84.5381C77.0872 84.1714 77.8858 84.2682 78.3989 84.9119C78.8895 85.5323 78.8682 86.4886 78.2172 86.8911ZM75.3915 88.8242C74.7272 89.199 73.8584 88.9078 73.4659 88.2065C73.0733 87.5051 73.258 86.6759 73.8574 86.3321C74.4438 85.9376 75.2679 86.159 75.716 86.8337C76.1598 87.4992 76.0155 88.389 75.3915 88.8242ZM72.3778 90.4597C71.718 90.8438 70.8826 90.4795 70.5413 89.7423C70.2045 89.0142 70.4714 88.214 71.0619 87.8518C71.6794 87.5222 72.4929 87.817 72.8899 88.5276C73.2732 89.2335 73.0465 90.0942 72.3778 90.4597ZM69.9343 89.9985C70.262 90.7309 69.9624 91.5582 69.2625 91.8588C68.5583 92.15 67.7645 91.7774 67.4926 91.0183C67.2206 90.2593 67.5158 89.4227 68.1599 89.1488C68.8085 88.8842 69.6023 89.2567 69.9343 89.9985ZM66.8634 91.2282C67.1352 91.9872 66.7626 92.781 66.0366 93.0029C65.3106 93.2249 64.5459 92.7699 64.3477 91.9984C64.1315 91.2127 64.5041 90.4189 65.17 90.2143C65.8403 90.019 66.6007 90.4646 66.8634 91.2282ZM63.7097 92.1895C63.9211 92.989 63.4799 93.7586 62.7325 93.8882C61.9939 94.0363 61.2671 93.5176 61.1246 92.7194C60.9866 91.9305 61.423 91.1745 62.1107 91.0394C62.7935 90.9179 63.5067 91.4317 63.7097 92.1895ZM60.4785 92.8461C60.6169 93.6121 60.133 94.4592 59.3686 94.5056C58.6131 94.5706 57.9427 93.9794 57.8693 93.1824C57.7914 92.3761 58.2958 91.6673 58.9868 91.6104C59.6866 91.572 60.3409 92.0341 60.4785 92.8461ZM57.2151 93.2445C57.2793 94.046 56.7288 94.7538 55.9685 94.8325C55.2093 94.8423 54.5817 94.1736 54.5727 93.3685C54.5731 92.559 55.1361 91.9249 55.8262 91.9139C56.522 91.8434 57.1371 92.4382 57.2151 93.2445ZM53.9242 93.3711C53.9194 94.1712 53.31 94.8276 52.5465 94.828C51.7825 94.8515 51.221 94.0828 51.2761 93.2926C51.341 92.4751 51.9529 91.943 52.6527 91.9046C53.3472 91.9029 53.9153 92.566 53.9242 93.3711ZM29.9924 85.2123C30.4957 84.5724 31.3121 84.4442 31.8756 84.8357C32.4669 85.2141 32.5808 86.0715 32.1412 86.7492C31.6972 87.4176 30.8195 87.6323 30.183 87.2072C29.565 86.7732 29.5077 85.8431 29.9924 85.2123ZM27.4969 85.0951C27.1747 84.8503 27.0294 84.4752 27.0499 84.0892L29.4618 82.9354C29.937 83.3807 29.9548 84.2043 29.4753 84.7985C28.9813 85.4337 28.096 85.5609 27.4969 85.0951ZM32.687 87.1037C33.131 86.4354 33.9631 86.1968 34.5451 86.5796C35.1321 86.9486 35.3435 87.748 34.9539 88.4588C34.5736 89.1651 33.6988 89.4809 33.0526 89.0833C32.4112 88.6719 32.2474 87.7813 32.687 87.1037ZM35.5372 88.7725C35.9223 88.0524 36.7325 87.7447 37.3477 88.0774C37.958 88.4238 38.2202 89.2103 37.8992 89.9452C37.5782 90.6802 36.7297 91.0747 36.0693 90.6953C35.3993 90.3432 35.1569 89.4788 35.5372 88.7725ZM38.5112 90.1997C38.837 89.451 39.621 89.0646 40.2648 89.338C40.9134 89.5977 41.2161 90.4447 40.9592 91.1945C40.6926 91.9718 39.9134 92.3445 39.2055 92.0562C38.5069 91.7635 38.1902 90.9346 38.5112 90.1997ZM41.5952 91.3804C41.8525 90.6075 42.6056 90.1562 43.2691 90.3517C43.937 90.5565 44.3187 91.3543 44.1211 92.1328C43.9279 92.9205 43.175 93.372 42.4428 93.1522C41.7108 92.9325 41.3336 92.1439 41.5952 91.3804ZM44.762 92.305C44.9551 91.5173 45.6726 90.9916 46.3511 91.1231C47.0433 91.2594 47.4854 92.0168 47.3519 92.8102C47.2229 93.6128 46.5147 94.1341 45.7585 93.9829C45.0159 93.8365 44.5644 93.0834 44.762 92.305ZM47.9981 92.9456C48.1267 92.1659 48.7947 91.5843 49.488 91.6516C50.1769 91.7096 50.6888 92.4223 50.6288 93.2262C50.5595 94.0344 49.8916 94.6161 49.1386 94.5432C48.3762 94.4747 47.8736 93.7576 47.9981 92.9456ZM32.0251 62.6432L35.9922 60.7352L37.3358 63.5289L33.3687 65.437L37.4669 73.9578L34.3938 75.4358L24.9881 55.8797L33.1177 51.9696L34.4613 54.7633L29.4047 57.1954L32.0251 62.6432ZM41.6351 58.021L45.6023 56.113L46.9459 58.9068L42.9788 60.8148L47.0769 69.3357L44.0039 70.8136L34.5981 51.2576L42.7278 47.3475L44.0714 50.1413L39.0148 52.5733L41.6351 58.021ZM44.2084 46.6355L47.2815 45.1575L56.6873 64.7135L53.6142 66.1916L44.2084 46.6355ZM59.7859 57.9256C60.4039 59.2107 61.2604 59.418 62.1824 58.9746C63.1043 58.5312 63.4771 57.7327 62.859 56.4475L61.4214 53.4582L64.3269 52.0608L65.6571 54.8266C67.1082 57.8438 66.4038 60.3842 63.4424 61.8085C60.4811 63.2328 58.0565 62.1973 56.6054 59.1801L51.5531 48.6757C50.1019 45.6585 50.8066 43.118 53.7679 41.6937C56.7292 40.2694 59.1536 41.305 60.6049 44.3222L61.5991 46.3896L58.6936 47.787L57.6053 45.5241C56.9871 44.239 56.1172 44.0038 55.1953 44.4472C54.2733 44.8906 53.914 45.7171 54.5321 47.0021L59.7859 57.9256ZM60.2717 38.9096L63.3446 37.4317L72.7504 56.9877L69.6774 58.4657L60.2717 38.9096ZM79.2904 49.1294L75.7982 50.809L77.0803 54.9052L74.2306 56.2758L68.0098 35.1879L72.1725 33.1857L84.763 51.2101L81.69 52.6881L79.2635 49.0736L79.2904 49.1294ZM86.9593 72.7576C87.2783 72.1376 88.1189 71.9407 88.8344 72.3166C89.5456 72.6831 89.8482 73.5301 89.4961 74.2001C89.1666 74.8935 88.2167 75.0288 87.5524 74.6169C86.8425 74.1814 86.6629 73.4009 86.9593 72.7576ZM88.4297 69.9453C88.6893 69.2967 89.5037 69.0211 90.2435 69.3284C90.997 69.6405 91.3645 70.4565 91.0806 71.1737C90.733 71.8529 89.8549 72.0905 89.1437 71.724C88.4234 71.3618 88.1107 70.5652 88.4297 69.9453ZM89.631 66.9995C89.9044 66.3558 90.6328 65.9959 91.4149 66.2488C92.1652 66.4826 92.6663 67.2918 92.3642 67.9948C92.0759 68.7027 91.2377 69.0238 90.498 68.7165C89.7489 68.4137 89.3576 67.6433 89.631 66.9995ZM91.6009 65.6127C90.8325 65.3647 90.367 64.6298 90.5717 63.9618C90.804 63.3036 91.5518 62.8889 92.3214 63.0678C93.1185 63.2566 93.6344 64.0015 93.3917 64.7332C93.1719 65.4653 92.3692 65.8607 91.6009 65.6127ZM92.4476 62.4261C91.6643 62.2423 91.1382 61.5477 91.2697 60.8693C91.406 60.1771 92.1682 59.7213 92.9621 59.8317C93.7603 59.9515 94.2863 60.646 94.1444 61.3978C93.9981 62.1405 93.2357 62.5963 92.4476 62.4261ZM93.0378 59.18C92.244 59.0695 91.6438 58.4105 91.7111 57.7171C91.7783 57.0238 92.4959 56.4982 93.2953 56.5489C94.104 56.5952 94.6905 57.2494 94.622 58.0118C94.5398 58.7692 93.8316 59.2904 93.0378 59.18ZM93.3574 55.8922C92.5531 55.8552 91.8968 55.2458 91.8951 54.5513C91.8935 53.8566 92.5613 53.275 93.362 53.2568C94.1719 53.2341 94.8238 53.8343 94.8242 54.5978C94.811 55.3565 94.1661 55.9385 93.3574 55.8922ZM93.3643 52.5945C93.2308 52.6014 93.107 52.5808 92.9788 52.551L94.667 51.7433C94.4792 52.2322 93.9718 52.5775 93.3643 52.5945ZM86.2432 50.4981L76.8375 30.9421L79.9105 29.4641L87.9726 46.2264L93.0293 43.7944L94.3728 46.5881L86.2432 50.4981ZM79.5904 24.5635C79.6477 24.4449 79.7093 24.3356 79.7985 24.236C80.1929 23.7737 80.7802 23.5954 81.2787 23.7559L79.5904 24.5635ZM79.2814 23.8222C78.7647 24.4341 77.8927 24.589 77.353 24.1519C76.8133 23.7147 76.7507 22.8213 77.2266 22.1718C77.6981 21.5132 78.5559 21.3764 79.1549 21.8422C79.7491 22.3217 79.8073 23.2059 79.2814 23.8222ZM76.6719 21.7988C76.2142 22.4623 75.3502 22.6819 74.7726 22.3084C74.1906 21.9257 74.0542 21.0448 74.4663 20.3574C74.8784 19.67 75.7287 19.4458 76.37 19.8571C77.0066 20.2822 77.1478 21.1494 76.6719 21.7988ZM73.9069 19.9981C73.4991 20.6947 72.6658 21.0022 72.0507 20.6694C71.4307 20.3504 71.2201 19.505 71.5685 18.7798C71.9262 18.0501 72.764 17.7519 73.434 18.104C74.104 18.4561 74.319 19.3108 73.9069 19.9981ZM70.9852 18.466C70.6417 19.1776 69.8539 19.5088 69.1957 19.2766C68.5471 19.0168 68.2627 18.1839 68.5563 17.4393C68.8453 16.6855 69.6569 16.3087 70.3648 16.597C71.0823 16.8579 71.3429 17.7364 70.9852 18.466ZM67.9443 17.1849C67.6503 17.9525 66.913 18.2938 66.2402 18.1027C65.5675 17.9116 65.2132 17.1235 65.4475 16.3502C65.6725 15.5815 66.4485 15.1304 67.1761 15.3409C67.9131 15.5469 68.2331 16.454 67.9443 17.1849ZM64.807 16.155C64.5864 16.9331 63.8608 17.3942 63.1929 17.1894C62.51 17.0486 62.086 16.3053 62.2561 15.5171C62.417 14.7334 63.1532 14.1989 63.9001 14.3546C64.6322 14.5744 65.0413 15.3818 64.807 16.155ZM61.6006 15.3861C61.4443 16.1791 60.7634 16.71 60.0806 16.5692C59.3937 16.3963 58.8987 15.7667 59.0051 14.9406C59.1014 14.1651 59.8028 13.5103 60.5494 13.6889C61.292 13.8353 61.7615 14.6024 61.6006 15.3861ZM21.8549 33.8863C21.4722 34.4683 20.6001 34.6233 19.9123 34.2341C19.202 33.8216 18.9591 32.9802 19.3842 32.3437C19.7956 31.7023 20.672 31.5567 21.3449 32.01C22.0084 32.4677 22.2376 33.3042 21.8549 33.8863ZM20.2934 36.651C19.9744 37.2709 19.1148 37.4998 18.3803 37.1557C17.6502 36.821 17.3472 35.997 17.6949 35.3177C18.0562 34.6433 18.9064 34.419 19.6079 34.813C20.3138 35.2163 20.626 36.0359 20.2934 36.651ZM18.9597 39.5346C18.7 40.1832 17.8716 40.4769 17.1128 40.2015C16.3541 39.9261 15.9724 39.1283 16.2653 38.4297C16.5536 37.7218 17.3776 37.4188 18.1077 37.7535C18.8422 38.0975 19.2239 38.8952 18.9597 39.5346ZM17.8681 42.5191C17.677 43.1919 16.884 43.5598 16.0967 43.3436C15.3231 43.1324 14.8672 42.3701 15.087 41.6379C15.3067 40.9059 16.086 40.5331 16.8584 40.8134C17.6034 41.084 18.0729 41.8511 17.8681 42.5191ZM15.9108 43.9798C16.6844 44.1911 17.1322 44.8888 17.0189 45.5814C16.8919 46.269 16.1393 46.6974 15.3415 46.5548C14.5529 46.4076 14.0321 45.6764 14.1785 44.9338C14.2975 44.1816 15.1371 43.7685 15.9108 43.9798ZM15.2153 47.1965C16.0176 47.3485 16.5073 48.0148 16.4262 48.7033C16.359 49.3966 15.6511 49.8949 14.8476 49.8118C14.0486 49.7381 13.458 49.0516 13.5402 48.2942C13.6363 47.5415 14.4312 47.0586 15.2153 47.1965ZM14.7856 50.4685C15.5891 50.5515 16.1853 51.1782 16.1043 51.8668C16.06 52.5606 15.4477 53.1156 14.6338 53.106C13.8384 53.0874 13.1502 52.4592 13.1957 51.6964C13.2687 50.9433 13.9866 50.3947 14.7856 50.4685ZM14.6269 53.759C15.3949 53.7678 16.025 54.2986 16.0735 54.948L13.6616 56.1018C13.3481 55.8755 13.1473 55.5271 13.1589 55.1224C13.1722 54.3638 13.8268 53.7542 14.6269 53.759ZM18.1212 58.8385C21.1383 57.3874 23.6465 58.3826 25.1514 61.5116L30.0961 71.7925C31.601 74.9215 30.8128 77.5021 27.7957 78.9533C24.7784 80.4045 22.27 79.4093 20.765 76.2803L15.8204 65.9994C14.3155 62.8705 15.1039 60.2897 18.1212 58.8385ZM72.7174 15.6768C73.7701 16.2333 74.8419 16.7579 75.8709 17.3601L78.8679 19.3121C79.8215 20.0185 80.7372 20.7889 81.6718 21.5274C82.203 21.923 82.6778 22.3912 83.1526 22.8595L81.7518 23.5296C81.4308 23.2158 81.091 22.9109 80.7232 22.6422C79.8112 21.9272 78.9411 21.1807 78.0194 20.4931L75.1224 18.6073C74.1297 18.0334 73.0899 17.5276 72.0782 16.9856C71.0811 16.4025 69.9597 16.0839 68.9146 15.615C67.8607 15.1274 66.7526 14.8367 65.6454 14.5C64.5479 14.1358 63.4305 13.8496 62.2931 13.6641C61.1654 13.4513 60.048 13.165 58.89 13.1034C57.7417 13.0143 56.6046 12.8059 55.4591 12.8181L52.0004 12.8083L48.568 13.1394C47.4204 13.2666 46.3069 13.5598 45.1719 13.7608C44.0328 13.9296 42.9495 14.3338 41.8491 14.655C40.7307 14.962 39.6388 15.3247 38.5954 15.8124C37.5475 16.2908 36.4243 16.6116 35.4386 17.22L32.4016 18.878L29.5573 20.82C28.5985 21.461 27.7702 22.279 26.8792 22.9902C25.9608 23.6917 25.1869 24.5521 24.3815 25.3705C23.5442 26.1701 22.7751 27.0168 22.0919 27.9478C21.3861 28.8554 20.5985 29.7109 20.0153 30.708C19.4096 31.6817 18.7082 32.5986 18.1707 33.6196L16.5809 36.6827L15.274 39.8842C14.8643 40.958 14.5917 42.0801 14.2413 43.1824C13.859 44.2659 13.7421 45.4275 13.4882 46.5407C13.22 47.6722 13.1035 48.8108 13.0053 49.9636C12.8702 51.1112 12.7674 52.2547 12.8027 53.4006C12.8306 54.4359 12.7342 55.4738 12.8453 56.4922L11.4446 57.1623C11.4457 57.0933 11.4332 57.0195 11.4252 56.9549C11.2573 55.77 11.3794 54.5716 11.345 53.3797C11.3014 52.1923 11.4142 50.9983 11.5544 49.8141C11.658 48.6246 11.7752 47.4399 12.053 46.2811C12.3171 45.1175 12.4393 43.9191 12.836 42.7945C13.1961 41.6647 13.4832 40.5014 13.9074 39.3865L15.2531 36.0753L16.9046 32.9029C17.4567 31.8408 18.1769 30.8921 18.8109 29.8821C19.4223 28.8486 20.2289 27.9612 20.9537 27.0217C21.6696 26.0637 22.4713 25.19 23.3276 24.3586C24.1656 23.5131 24.9678 22.6164 25.9096 21.8924C26.8425 21.1497 27.7035 20.3046 28.6857 19.641L31.646 17.6321L34.7807 15.916C35.8035 15.2899 36.964 14.9514 38.0489 14.4552C39.1339 13.959 40.2628 13.5785 41.4091 13.2581C42.5509 12.9285 43.6759 12.5158 44.8564 12.3386C46.033 12.1292 47.1881 11.8274 48.3772 11.6917L51.9339 11.3583L55.5123 11.3563C56.6945 11.3494 57.8776 11.5586 59.0719 11.6484C60.2667 11.7153 61.425 12.0161 62.5896 12.2342C63.773 12.4205 64.9222 12.7257 66.0609 13.1043C67.1955 13.4507 68.354 13.7515 69.4398 14.258C70.5308 14.7279 71.6791 15.0791 72.7174 15.6768ZM99.2183 24.2329L94.9596 22.6945C89.6296 20.7691 83.2375 15.0257 80.7533 9.93158L78.7687 5.86193C76.2846 0.767857 70.0558 -1.43133 64.9252 0.977427L60.8261 2.90044C55.6967 5.30859 47.1147 5.76802 41.756 3.92205L37.4751 2.44767C32.1168 0.601516 26.1575 3.45219 24.2324 8.78257L22.6937 13.0409C20.7693 18.3709 15.0255 24.7644 9.93164 27.2467L5.86156 29.2316C0.767202 31.7141 -1.43106 37.9445 0.977423 43.0748L2.90048 47.1739C5.30813 52.3046 5.76742 60.8861 3.9221 66.244L2.44688 70.5253C0.600395 75.8832 3.45126 81.8428 8.78132 83.7671L13.0409 85.3062C18.3707 87.2324 24.7635 92.9748 27.2472 98.0691L29.2314 102.138C31.7145 107.233 37.9444 109.431 43.0747 107.023L47.174 105.099C52.304 102.693 60.8863 102.233 66.2436 104.079L70.5248 105.554C75.8826 107.399 81.8419 104.549 83.7675 99.2191L85.3059 94.9604C87.2318 89.6301 92.9752 83.2369 98.0684 80.7531L102.138 78.7694C107.233 76.2851 109.431 70.0573 107.023 64.926L105.1 60.8268C102.693 55.6959 102.233 47.1154 104.078 41.7568L105.553 37.4747C107.398 32.1177 104.548 26.1582 99.2183 24.2329ZM73.4457 94.6508C51.0315 105.373 24.0726 95.8601 13.3503 73.4459C2.62803 51.0318 12.1397 24.0725 34.554 13.3503C56.9682 2.62803 83.9279 12.1405 94.6502 34.5547C105.372 56.9689 95.8599 83.9286 73.4457 94.6508ZM71.5767 37.6691L74.885 47.9803L77.6507 46.6501L71.6327 37.6423L71.5767 37.6691ZM21.9352 42.4043L25.2366 43.5219C25.3092 43.5466 25.3652 43.6053 25.3861 43.6791L26.337 47.0323C26.3897 47.2181 26.6326 47.2628 26.748 47.108L28.8311 44.3136C28.8769 44.2521 28.9501 44.217 29.0268 44.2199L32.5097 44.3518C32.7027 44.359 32.8203 44.1419 32.7087 43.9842L30.6948 41.1396C30.6504 41.077 30.6398 40.9966 30.6662 40.9245L31.8679 37.6528C31.9345 37.4715 31.7642 37.2925 31.5798 37.35L28.2521 38.3863C28.1788 38.4091 28.099 38.3944 28.0388 38.347L25.2985 36.1932C25.1466 36.0738 24.9238 36.1804 24.9214 36.3735L24.8787 39.8587C24.8778 39.9354 24.8392 40.0067 24.7754 40.0494L21.8802 41.99C21.7197 42.0975 21.7523 42.3423 21.9352 42.4043ZM67.5154 73.1454C67.4325 73.1174 67.3689 73.0505 67.3451 72.9664L66.0702 68.4712C66.0102 68.2594 65.7335 68.2085 65.6019 68.3849L62.8094 72.1311C62.7571 72.2011 62.6738 72.241 62.5865 72.2377L57.9173 72.061C57.6975 72.0527 57.5634 72.3001 57.6906 72.4798L60.3905 76.2933C60.441 76.3646 60.4531 76.4562 60.423 76.5382L58.8121 80.9243C58.7362 81.1308 58.9301 81.3347 59.1403 81.2693L63.6015 79.88C63.6849 79.854 63.7758 79.8708 63.8445 79.9248L67.518 82.8122C67.691 82.9482 67.9448 82.8267 67.9476 82.6067L68.0049 77.9345C68.0059 77.8472 68.0499 77.7659 68.1225 77.7172L72.0038 75.1157C72.1866 74.9932 72.1496 74.7143 71.9411 74.6437L67.5154 73.1454ZM49.5379 80.3744C49.4652 80.3498 49.4093 80.291 49.3883 80.2172L48.4374 76.8641C48.3848 76.6782 48.1419 76.6335 48.0264 76.7883L45.9433 79.5828C45.8974 79.6443 45.8243 79.6792 45.7476 79.6764L42.2647 79.5445C42.0717 79.5373 41.9541 79.7545 42.0657 79.9121L44.0797 82.7567C44.124 82.8193 44.1346 82.8998 44.1083 82.9717L42.9065 86.2435C42.84 86.4247 43.0102 86.6037 43.1946 86.5463L46.5223 85.51C46.5956 85.4872 46.6754 85.5018 46.7357 85.5493L49.476 87.7031C49.6278 87.8225 49.8506 87.7159 49.853 87.5228L49.8957 84.0376C49.8966 83.9609 49.9353 83.8896 49.999 83.8469L52.8942 81.9063C53.0547 81.7988 53.0222 81.5539 52.8392 81.492L49.5379 80.3744ZM58.4615 27.6282C58.5342 27.6528 58.5901 27.7116 58.611 27.7854L59.5619 31.1385C59.6146 31.3244 59.8575 31.3691 59.973 31.2142L62.0561 28.4198C62.1019 28.3584 62.175 28.3233 62.2517 28.3263L65.7346 28.458C65.9276 28.4653 66.0452 28.2481 65.9336 28.0905L63.9197 25.2458C63.8754 25.1832 63.8647 25.1028 63.8911 25.0308L65.0928 21.7591C65.1594 21.5778 64.9892 21.3988 64.8047 21.4562L61.4769 22.4926C61.4037 22.5154 61.324 22.5007 61.2637 22.4533L58.5234 20.2994C58.3715 20.1801 58.1487 20.2867 58.1463 20.4798L58.1036 23.965C58.1027 24.0416 58.0641 24.1129 58.0003 24.1557L55.1051 26.0962C54.9447 26.2038 54.9772 26.4487 55.1601 26.5106L58.4615 27.6282ZM40.484 34.8571C40.5667 34.8851 40.6304 34.9521 40.6543 35.0361L41.9291 39.5314C41.9891 39.743 42.2658 39.794 42.3973 39.6176L45.1899 35.8714C45.2421 35.8014 45.3255 35.7615 45.4128 35.7648L50.0819 35.9415C50.3019 35.9499 50.4359 35.7024 50.3087 35.5228L47.6089 31.7093C47.5584 31.6379 47.5462 31.5463 47.5763 31.4643L49.1872 27.0783C49.2631 26.8717 49.0691 26.6678 48.859 26.7333L44.3979 28.1226C44.3144 28.1485 44.2236 28.1318 44.1548 28.0778L40.4813 25.1904C40.3082 25.0544 40.0544 25.1758 40.0517 25.3959L39.9944 30.0681C39.9933 30.1554 39.9493 30.2367 39.8767 30.2853L35.9954 32.8868C35.8126 33.0094 35.8497 33.2883 36.0581 33.3589L40.484 34.8571Z" fill="#4F0F98"/>
<rect x="11.002" y="58.3477" width="81.2733" height="29" transform="rotate(-25.6487 11.002 58.3477)" fill="#4F0F98"/>
<g clip-path="url(#clip0_216_16164)">
<rect width="64.4945" height="27.2241" transform="translate(19 55.9375) rotate(-25.669)" fill="#4F0F98"/>
<path d="M61.142 38.3363C64.1202 34.031 69.6377 32.3597 74.3089 34.9886C74.7906 35.2596 75.6816 35.5565 75.9385 36.0231C76.0082 36.5375 75.0053 38.8511 74.8054 39.7277C75.3843 39.4449 76.5458 38.8468 77.1132 38.6961C77.3938 39.2553 77.6715 39.8161 77.9462 40.3783C78.3124 40.2142 78.8333 39.9607 79.1963 39.8254C80.5804 41.6198 81.2534 44.4704 80.9711 46.7249C80.6876 49.1453 79.4348 51.3408 77.5011 52.8045C75.4611 54.3732 72.5246 55.0622 69.9816 54.7195C68.0481 54.4594 66.7606 53.7288 65.1307 52.713C64.4003 52.258 63.765 51.8882 63.1006 51.3176C63.0885 52.2941 63.1557 53.3748 63.1851 54.359C63.2592 56.6113 63.3197 58.8642 63.3663 61.117C63.3793 62.0328 63.4362 63.5614 63.3522 64.4385C62.6394 64.8305 58.5521 66.9034 58.0272 66.8091C57.784 66.441 57.8594 65.6496 57.7922 65.164C57.3075 65.3932 56.7701 65.6635 56.2736 65.852C56.2251 65.037 56.2165 63.5406 56.1215 62.8371C54.6053 63.6675 53.0649 64.4146 51.476 65.0884C51.1665 65.2192 50.4559 65.8751 50.0927 66.0908C48.6014 66.9766 46.6326 67.238 44.9835 66.7156C43.6789 66.3023 41.2707 64.716 40.2822 63.8042C39.2552 64.8449 38.4061 65.726 37.0451 66.3517C36.3568 66.6683 35.7178 67.1041 34.9759 67.3259C35.6887 68.8125 36.5312 70.4418 37.2015 71.9264C36.1288 72.6462 33.431 73.8066 32.1883 74.3327C31.7836 73.7877 31.6351 73.443 31.3509 72.8326C30.9492 73.0115 30.4252 73.2618 30.0249 73.4175C29.4221 72.3339 28.7964 70.9177 28.2496 69.7765C27.2292 67.6684 26.2246 65.5528 25.2358 63.4297C24.0442 60.8661 22.8041 58.5358 21.6743 55.925C22.4917 55.3299 24.032 54.7604 24.9654 54.3081C27.6401 53.012 30.533 51.1531 33.6549 51.734C35.3353 52.0466 38.0925 53.3907 39.3672 54.6009C40.3948 53.3315 41.2816 52.7233 42.9042 52.3025C43.4054 52.1725 43.6483 52.3305 44.0359 51.9867C44.6959 51.4011 45.8301 51.026 46.671 50.6198L51.6188 48.2479C52.0107 48.579 52.5497 49.0592 52.9569 49.3325C53.2971 49.155 53.4582 48.9814 53.8222 49.1408C54.5339 49.7434 55.2382 50.3547 55.935 50.9747C55.9721 50.6872 55.9173 49.7012 55.9022 49.3644C55.8561 48.3272 55.8048 47.2903 55.7481 46.2537C56.3698 45.8671 58.8356 44.7557 59.6397 44.3699C59.6311 43.4598 59.6516 42.9199 59.7533 42.018C59.8079 41.8854 59.9117 41.352 59.9528 41.1661C60.1907 40.0918 60.5901 39.2721 61.142 38.3363ZM46.1902 60.3698C47.0976 59.6531 47.1053 57.7185 46.1996 58.2009C46.0359 58.3544 45.8921 58.4849 45.7673 58.6781C45.5187 59.0625 45.2705 60.8897 46.1902 60.3698ZM53.2373 56.843C54.1228 58.6972 55.1645 61.0031 56.1483 62.7553C56.1449 62.3311 56.1508 61.871 56.1261 61.4503C56.0908 60.6814 56.0679 59.9118 56.0576 59.1421C55.6902 58.7761 53.6032 56.7869 53.2373 56.843ZM71.3043 46.9408L70.4981 47.3238C69.9709 46.233 68.7544 43.8585 68.421 42.808C69.502 42.0992 71.8336 41.1309 73.0846 40.4748C71.8123 39.958 70.5534 39.9361 69.3458 40.6549C67.0617 41.9689 66.7845 44.7105 68.1127 46.8679C69.2093 48.649 70.2314 48.645 72.006 47.8273C71.8916 47.532 71.7596 47.0626 71.5255 46.8862C71.458 46.9007 71.3663 46.917 71.3043 46.9408ZM28.1256 57.9672C28.83 59.4236 29.5633 61.0212 30.3 62.4487C31.7137 61.7875 33.8225 61.0833 34.4617 59.6539C34.8045 58.2403 34.1148 56.7761 32.677 56.4422C31.3607 56.1365 29.3255 57.3819 28.1256 57.9672Z" fill="#4F0F98"/>
<path d="M53.1702 49.5241C53.3838 49.3632 53.5865 49.2667 53.8219 49.1428C54.5336 49.7454 55.2379 50.3567 55.9347 50.9767C55.9269 51.3133 56.0271 51.506 56.0134 51.6946C55.5892 51.1953 54.2049 50.1126 53.6528 49.6203C53.4822 49.4682 53.3493 49.4865 53.1702 49.5241Z" fill="#4F0F98"/>
<path d="M53.1699 49.5195C53.3491 49.4818 53.4819 49.4636 53.6525 49.6157C54.2047 50.108 55.589 51.1907 56.0131 51.69C55.9804 51.783 55.9768 51.7642 55.9012 51.8433C55.5245 51.7342 53.5666 49.8986 53.1699 49.5195Z" fill="#4F0F98"/>
<path d="M49.4805 62.4973C48.7863 63.8645 48.2224 64.4371 46.6845 64.9637C45.2928 65.4394 43.8194 65.2308 42.5065 64.5782C40.8194 63.7402 39.7258 62.0258 39.167 60.2541C38.6807 58.7298 38.8258 57.0763 39.5697 55.6678C40.3093 54.2808 41.5075 53.4583 42.9844 53.0133C43.686 52.8019 44.6108 53.1575 44.9878 53.0098C45.0163 52.7842 44.8763 52.6134 44.7617 52.3714L49.2083 50.2499C49.9681 49.8852 50.8781 49.4108 51.6419 49.0858C53.2123 50.3587 54.6737 51.7606 56.2004 53.0797C56.3573 52.9325 56.5459 52.8598 56.7642 52.8888C56.5548 51.2376 56.5615 48.4912 56.4846 46.741C57.4596 46.2863 59.4458 45.2558 60.3427 44.9329C60.3933 48.9002 60.4833 52.867 60.6126 56.8328L60.723 60.4725C60.7337 60.8303 60.7873 61.9437 60.7567 62.2465C60.776 62.4491 60.773 62.7626 60.7768 62.9748C59.5553 63.5065 58.2244 64.1738 57.001 64.7453C56.9192 62.7542 56.8524 60.7633 56.8 58.7714C55.3262 57.5369 53.8683 56.1966 52.3952 54.9399C51.3632 54.0252 49.326 52.3667 48.451 51.4705L53.2635 61.5728C52.1285 62.0883 50.998 62.6137 49.872 63.1488L49.4805 62.4973ZM46.1893 60.3699C47.0967 59.6531 47.1044 57.7185 46.1986 58.2009C46.035 58.3544 45.8911 58.4849 45.7664 58.6781C45.5178 59.0625 45.2695 60.8897 46.1893 60.3699Z" fill="#FAF9FC"/>
<path d="M52.7539 54.6424C53.2297 54.3793 53.6426 54.1352 54.0895 53.8097C54.2035 53.7265 54.4863 53.8623 54.5179 53.8471C54.8193 53.7022 55.4948 53.385 55.7586 53.2477C56.2335 53.6826 56.7183 54.106 57.213 54.5186C57.2258 53.8082 57.1928 53.3234 57.1322 52.6123C57.8464 52.2661 58.6647 52.0075 59.4487 51.8567C59.651 51.8171 59.856 51.917 60.0408 52.001L60.0847 53.5127L60.2502 58.9789C60.2834 60.2121 60.27 61.4153 60.3847 62.6459L60.5767 62.5881C60.6616 62.4597 60.6943 62.3819 60.7572 62.2446C60.7765 62.4472 60.7736 62.7607 60.7774 62.9729C59.5559 63.5046 58.2249 64.1719 57.0015 64.7434C56.9197 62.7523 56.8529 60.7614 56.8006 58.7695C55.3267 57.535 53.8688 56.1947 52.3958 54.938C52.5788 54.8187 52.589 54.8152 52.71 54.6374L52.7539 54.6424Z" fill="white"/>
<path d="M52.754 54.645C53.2298 54.3819 53.6427 54.1378 54.0896 53.8123C54.2036 53.7291 54.4864 53.8648 54.518 53.8496C54.8194 53.7048 55.4949 53.3876 55.7588 53.2503C56.2336 53.6852 56.7184 54.1086 57.2131 54.5212C57.2259 53.8108 57.1929 53.326 57.1323 52.6149C57.8465 52.2686 58.6648 52.0101 59.4489 51.8593C59.6511 51.8197 59.8561 51.9195 60.0409 52.0036L60.0848 53.5153C59.836 53.2397 59.6369 53.3676 59.3389 53.5519C59.0818 53.7114 58.6373 53.7739 58.4697 53.9637L58.4922 54.1377C57.5286 54.535 56.5254 54.8637 55.6039 55.338C55.183 55.5545 55.071 55.767 54.5963 55.9308L54.5528 55.9457C54.7168 56.1543 55.1887 56.6707 55.2705 56.8379C54.5558 56.2983 53.438 55.2646 52.754 54.645Z" fill="white"/>
<path d="M52.7103 54.6386L52.7543 54.6437C53.4382 55.2632 54.556 56.297 55.2708 56.8366C55.8224 57.4576 56.6909 58.0206 57.2326 58.6172C57.2959 60.0215 57.2726 62.8206 57.4529 64.0864C57.9363 63.8562 60.0385 62.8923 60.3851 62.6472L60.577 62.5894C60.6619 62.461 60.6946 62.3831 60.7575 62.2459C60.7768 62.4484 60.7739 62.7619 60.7777 62.9742C59.5562 63.5058 58.2252 64.1732 57.0019 64.7447C56.92 62.7535 56.8533 60.7626 56.8009 58.7708C55.327 57.5363 53.8691 56.196 52.3961 54.9393C52.5791 54.8199 52.5893 54.8165 52.7103 54.6386Z" fill="#FAF9FC"/>
<path d="M48.5554 51.0711C49.1329 50.7867 51.116 49.7563 51.6135 49.5843C51.9062 49.8735 52.2575 50.2416 52.5753 50.4919C53.6796 51.3614 54.688 52.349 55.7588 53.2515C55.495 53.3888 54.8194 53.706 54.518 53.8508C54.4864 53.866 54.2037 53.7303 54.0897 53.8135C53.6428 54.139 53.2299 54.3831 52.7541 54.6462L52.7101 54.6412C51.8726 53.8745 51.0455 53.1827 50.174 52.457C49.6224 51.9977 49.1368 51.5099 48.5554 51.0711Z" fill="white"/>
<path d="M56.9566 47.0372C57.9809 46.4922 58.7983 46.0915 59.8757 45.6384C59.9359 46.4207 60.0573 48.4891 59.9644 49.2435C59.5608 49.2652 57.5022 50.2767 57.0817 50.5286C57.0148 49.3288 57.011 48.2072 56.9566 47.0372Z" fill="white"/>
<path d="M57.0819 50.5287C57.5024 50.2768 59.561 49.2653 59.9646 49.2436C60.0003 50.1524 60.0512 51.0961 60.0412 52.0028C59.8564 51.9187 59.6514 51.8189 59.4491 51.8585C58.6651 52.0093 57.8468 52.2678 57.1326 52.6141L57.0819 50.5287Z" fill="white"/>
<path d="M56.2008 53.0806C56.3577 52.9334 56.5464 52.8607 56.7647 52.8897C56.7801 53.1001 56.8246 53.3032 56.7321 53.4794C56.5492 53.4588 56.348 53.2209 56.2008 53.0806Z" fill="#4F0F98"/>
<path d="M39.6276 60.4373C39.1954 58.8024 39.1397 57.2519 40.0187 55.7366C40.6629 54.6356 41.7172 53.8391 42.9501 53.5218C44.2568 53.1892 44.5149 53.5123 45.6809 53.6215C45.5691 53.2378 45.4848 52.9178 45.3137 52.5522C46.0981 52.1888 47.217 51.6333 47.9947 51.3263C48.642 52.9374 49.3294 54.3443 50.103 55.9012C50.5167 56.7748 51.2873 58.283 51.6097 59.1542C51.982 59.8532 52.3538 60.6512 52.7058 61.3666L50.0023 62.6382L49.4129 61.4598C49.1973 62.0447 48.9607 62.7018 48.5644 63.1826C46.7812 65.3456 43.8443 65.1652 41.7791 63.5951C41.3611 63.2669 40.9112 62.7235 40.5671 62.314C40.139 61.6561 39.9002 61.1631 39.6276 60.4373ZM46.1902 60.3697C47.0976 59.653 47.1053 57.7183 46.1995 58.2008C46.0359 58.3543 45.892 58.4848 45.7673 58.678C45.5187 59.0624 45.2704 60.8896 46.1902 60.3697Z" fill="#FAF9FC"/>
<path d="M39.6269 60.4383C39.1947 58.8034 39.139 57.2529 40.018 55.7376C40.6622 54.6366 41.7166 53.8401 42.9495 53.5228C44.2562 53.1901 44.5143 53.5133 45.6802 53.6225C45.5684 53.2388 45.4842 52.9188 45.313 52.5532C46.0974 52.1897 47.2164 51.6343 47.994 51.3273C48.6413 52.9384 49.3287 54.3453 50.1023 55.9021C50.0351 55.8424 49.9762 55.7622 49.9135 55.7774C49.1534 55.9563 47.8985 56.5639 47.3466 57.0372C46.2754 55.5868 44.1893 55.4475 42.9754 56.7872C42.3296 57.4999 42.3838 58.2628 42.444 59.1569C41.5071 59.5885 40.568 60.0158 39.6269 60.4383Z" fill="white"/>
<path d="M47.3472 57.0349C47.8991 56.5616 49.154 55.954 49.9141 55.7751C49.9769 55.7599 50.0358 55.8401 50.103 55.8999C50.5167 56.7735 51.2873 58.2817 51.6097 59.1529C51.9819 59.8519 52.3537 60.6499 52.7057 61.3653L50.0023 62.6369L49.4129 61.4585C49.1973 62.0434 48.9606 62.7005 48.5644 63.1813C46.7812 65.3443 43.8443 65.1639 41.7791 63.5938C42.0383 63.0636 44.9124 62.2638 45.7452 61.7348C46.5276 61.5759 46.9332 61.3053 47.4976 60.7617C47.9891 60.1064 48.0732 59.4821 48.0216 58.6852C47.921 58.0105 47.7249 57.5854 47.3472 57.0349Z" fill="white"/>
<path d="M47.347 57.0373C47.8988 56.564 49.1537 55.9564 49.9138 55.7775C49.9766 55.7623 50.0355 55.8425 50.1027 55.9022C50.5164 56.7759 51.287 58.2841 51.6094 59.1552L51.4846 58.9847C50.4136 59.3235 48.3748 60.6087 47.4973 60.764C47.9888 60.1087 48.0729 59.4845 48.0213 58.6875C47.9208 58.0129 47.7246 57.5877 47.347 57.0373Z" fill="white"/>
<path d="M47.3469 57.0338C47.8988 56.5605 49.1537 55.9529 49.9138 55.774C49.9765 55.7588 50.0354 55.839 50.1026 55.8988C50.5164 56.7724 51.287 58.2806 51.6093 59.1518L51.4845 58.9812L50.7011 57.3512L48.0213 58.6841C47.9207 58.0094 47.7246 57.5843 47.3469 57.0338Z" fill="white"/>
<path d="M39.6266 60.4365C40.5678 60.0141 41.5068 59.5867 42.4438 59.1551C42.5934 59.887 42.8046 60.2877 43.3058 60.8491C44.0113 61.5496 44.7442 61.8508 45.7444 61.7353C44.9115 62.2643 42.0374 63.0641 41.7782 63.5943C41.3602 63.2661 40.9102 62.7227 40.5662 62.3132C40.1381 61.6553 39.8993 61.1624 39.6266 60.4365Z" fill="white"/>
<path d="M39.6266 60.4365C40.5678 60.0141 41.5068 59.5867 42.4438 59.1551C42.5934 59.887 42.8046 60.2877 43.3058 60.8492C42.6798 61.1328 40.9704 61.8653 40.5662 62.3132C40.1381 61.6553 39.8993 61.1624 39.6266 60.4365Z" fill="white"/>
<path d="M43.6345 56.7414C44.0733 56.4791 44.4016 56.3088 44.9139 56.2769C45.5585 56.2386 46.192 56.4669 46.6672 56.9089C47.2271 57.4248 47.5614 58.142 47.5965 58.9028C47.6287 59.7794 47.3179 60.2948 46.7543 60.9039C45.6647 61.587 44.4218 61.4576 43.5347 60.4919C43.0293 59.9437 42.7611 59.2156 42.7905 58.471C42.8215 57.7379 43.1111 57.2247 43.6345 56.7414ZM46.1895 60.3723C47.0969 59.6555 47.1046 57.7209 46.1989 58.2034C46.0352 58.3569 45.8914 58.4874 45.7666 58.6805C45.518 59.065 45.2698 60.8922 46.1895 60.3723Z" fill="#4F0F98"/>
<path d="M43.8031 57.4706C44.8412 56.8589 45.1957 56.6864 46.2206 57.4722C45.3999 58.0358 44.788 58.4706 44.8819 59.5922C45.02 60.0804 45.1229 60.3513 45.3129 60.8116C43.8264 60.2926 43.3799 59.6203 43.4657 58.0275L43.8031 57.4706Z" fill="#4F0F98"/>
<path d="M22.6351 56.2631L26.582 54.3633C29.0528 53.1707 30.9597 52.0083 33.867 52.5582C37.1501 53.1792 39.324 56.9316 38.6198 60.1428C38.2829 61.688 37.352 63.0336 36.0294 63.8877C35.2026 64.5059 32.9819 65.5043 31.9805 65.9818L34.2552 70.7053C33.0672 71.1999 31.6156 71.941 30.4324 72.5051L22.6351 56.2631ZM30.2996 62.4463C31.7134 61.7851 33.8222 61.0809 34.4613 59.6515C34.8042 58.2379 34.1145 56.7737 32.6767 56.4398C31.3604 56.1341 29.3252 57.3795 28.1253 57.9648C28.8297 59.4212 29.563 61.0187 30.2996 62.4463Z" fill="#FAF9FC"/>
<path d="M23.1685 56.4113C24.4068 55.8026 25.6928 55.2563 26.9346 54.6461C28.6158 53.8568 30.1668 52.9978 32.0552 52.8659C35.6624 52.614 38.0885 55.2823 38.3088 58.7661C38.2211 62.3481 36.0329 63.6265 33.1456 64.9812C32.5692 65.2515 31.9889 65.5476 31.4071 65.813C31.6964 66.4434 31.9939 67.0697 32.2995 67.6915C32.7739 68.6198 33.228 69.5571 33.6624 70.5047C32.6512 70.9839 31.6374 71.4577 30.6214 71.9265C30.1849 71.0399 29.7579 70.1486 29.3408 69.2534C28.8908 68.3463 28.4525 67.4328 28.0264 66.5142L23.1685 56.4113ZM30.2999 62.4493C31.7137 61.7881 33.8224 61.0839 34.4616 59.6545C34.8045 58.2409 34.1147 56.7767 32.677 56.4428C31.3607 56.1371 29.3255 57.3825 28.1256 57.9678C28.83 59.4242 29.5633 61.0218 30.2999 62.4493Z" fill="white"/>
<path d="M34.1926 60.9017C35.0173 60.741 37.6507 58.8491 38.3085 58.7643C38.2208 62.3463 36.0325 63.6247 33.1453 64.9794C32.5689 65.2497 31.9886 65.5458 31.4068 65.8112C31.696 66.4416 31.9936 67.068 32.2992 67.6897C32.7736 68.618 33.2277 69.5553 33.662 70.5029C32.6509 70.9822 31.6371 71.4559 30.621 71.9248C30.1846 71.0381 29.7576 70.1468 29.3405 69.2516C28.8905 68.3445 28.4521 67.4311 28.0261 66.5125C27.9246 66.0511 27.3533 65.0013 27.1064 64.5247C27.9603 64.033 29.1836 63.4362 30.1033 63.0292C31.4275 62.3793 32.9965 61.7652 34.1926 60.9017Z" fill="white"/>
<path d="M29.3406 69.2528L29.2601 68.8252C29.7941 68.4144 31.6581 67.5215 32.2994 67.6908C32.7737 68.6192 33.2279 69.5565 33.6622 70.5041C32.651 70.9833 31.6372 71.457 30.6212 71.9259C30.1847 71.0392 29.7577 70.148 29.3406 69.2528Z" fill="white"/>
<path d="M27.5902 57.794C28.6034 57.2574 30.873 56.0524 31.9344 55.9815C32.6837 55.9289 33.4239 56.1845 33.985 56.6898C34.5849 57.2278 34.9487 57.9822 34.9962 58.7866C35.0416 59.6929 34.7802 60.2611 34.1925 60.9001C32.9964 61.7636 31.4274 62.3777 30.1032 63.0276C29.818 62.5516 29.4318 61.6708 29.1754 61.1384C28.6316 60.0309 28.1031 58.9161 27.5902 57.794ZM30.2995 62.446C31.7133 61.7847 33.822 61.0805 34.4612 59.6512C34.8041 58.2375 34.1143 56.7733 32.6766 56.4395C31.3603 56.1337 29.3251 57.3791 28.1252 57.9644C28.8296 59.4208 29.5629 61.0184 30.2995 62.446Z" fill="#FAF9FC"/>
<path d="M28.1248 57.9645C29.3247 57.3792 31.3599 56.1339 32.6762 56.4396C34.1139 56.7734 34.8037 58.2376 34.4608 59.6513C33.8216 61.0807 31.7129 61.7849 30.2991 62.4461C29.5625 61.0185 28.8292 59.4209 28.1248 57.9645ZM31.9262 60.8908C32.7229 60.4762 33.3227 60.2652 33.7568 59.4673C33.7964 59.1251 33.8509 58.6967 33.6744 58.3869C33.5372 58.2797 33.4148 58.178 33.214 58.2307C32.5738 58.3986 31.683 58.8727 31.0741 59.1646C31.3474 59.7266 31.6337 60.3441 31.9262 60.8908Z" fill="#4F0F98"/>
<path d="M28.8773 58.2783C29.641 57.9052 30.6331 57.3888 31.4355 57.1269C32.1725 56.8863 32.655 57.0806 33.2883 57.4446L30.9247 58.5527L30.2642 58.8858C30.6365 59.6844 30.9606 60.3414 31.3799 61.118L30.4802 61.5484C29.936 60.4964 29.4102 59.3506 28.8773 58.2783Z" fill="#4F0F98"/>
<path d="M64.7518 35.9027C64.9966 35.7324 65.8066 35.3277 66.0931 35.1999C68.6252 34.0706 70.8706 34.3193 73.3757 35.283C73.0529 36.3522 72.4108 37.9723 72.0248 39.0617C71.4716 38.7841 70.5898 38.5496 69.9815 38.4869C68.6339 38.3375 67.2866 38.7487 66.2535 39.6244C62.7595 42.5513 65.0756 48.8403 69.5688 49.1327C70.8779 49.207 72.1614 48.7638 73.1434 47.8967C74.1663 46.9762 74.3808 46.0125 74.4478 44.7094L70.8824 46.4073C70.3846 45.3228 69.8501 44.266 69.3669 43.1696C69.9626 42.8601 70.6388 42.5508 71.2483 42.256C73.0975 41.4235 74.9318 40.4874 76.7889 39.6406C78.0122 41.8241 78.624 43.9148 78.1312 46.4163C77.716 48.4884 76.495 50.3049 74.7389 51.464C72.6593 52.8361 70.2993 53.4405 67.8262 52.9055C65.4413 52.3797 63.3602 50.9176 62.0477 48.8454C60.6545 46.6539 60.1189 44.1675 60.6826 41.6233C61.2294 39.2466 62.6925 37.1897 64.7518 35.9027Z" fill="#FAF9FC"/>
<path d="M62.0497 48.0443C61.9752 47.9283 61.8492 47.674 61.79 47.5489C60.7479 45.3917 60.6287 42.9048 61.4603 40.6676C62.25 38.4774 63.8787 36.6991 65.9852 35.7267C68.2169 34.6963 70.4951 34.6747 72.7909 35.5244C72.4292 36.3674 72.1352 37.5245 71.7759 38.456C69.9426 37.9687 68.6438 37.7229 66.9106 38.6834C63.8306 40.3903 63.5451 43.7594 65.0205 46.6202C64.0705 47.0193 62.9933 47.5886 62.0497 48.0443Z" fill="white"/>
<path d="M74.8774 45.6096C75.3145 45.2282 77.284 44.2719 77.8293 44.2052C77.8444 44.6155 77.8684 45.2498 77.7794 45.6414C77.7389 46.6301 77.2442 48.0189 76.7014 48.853C74.3038 52.5365 69.0507 53.7993 65.3382 51.4103C66.2403 50.7665 68.2747 50.1435 69.2712 49.5636C71.4772 49.6627 73.3031 48.8525 74.4663 46.9358C74.4953 46.7969 74.8019 45.9071 74.8774 45.6096Z" fill="white"/>
<path d="M74.8773 45.6107C75.3144 45.2292 77.2839 44.2729 77.8292 44.2062C77.8444 44.6165 77.8683 45.2509 77.7794 45.6424C77.6625 45.6806 77.6553 45.6781 77.5505 45.7554C76.8153 46.2988 75.706 46.7691 74.84 47.0715C74.6716 47.1308 74.6139 47.0402 74.4662 46.9369C74.4952 46.7979 74.8018 45.9081 74.8773 45.6107Z" fill="white"/>
<path d="M69.8937 43.3577C71.3686 42.6308 72.848 41.9133 74.3319 41.2052C75.0442 40.866 75.9451 40.3965 76.6613 40.1427C76.7525 40.3479 77.1028 41.1031 77.1447 41.2752C77.6126 42.4762 77.7034 42.9063 77.8293 44.2042C77.284 44.2709 75.3145 45.2272 74.8774 45.6087C74.9413 45.0413 74.8941 44.6554 74.8235 44.1018C73.8984 44.4252 72.1478 45.3653 71.1341 45.8241C70.8979 45.3187 70.6904 44.9226 70.4195 44.4347C70.2285 44.1638 70.0334 43.6747 69.8937 43.3577Z" fill="white"/>
<path d="M69.8937 43.3577C71.3686 42.6308 72.848 41.9133 74.3319 41.2052C75.0442 40.866 75.9451 40.3965 76.6613 40.1427C76.7525 40.3479 77.1028 41.1031 77.1447 41.2752C75.3064 42.1104 73.5063 43.0294 71.6588 43.8391C71.1745 44.0512 70.8623 44.1206 70.4195 44.4347C70.2285 44.1638 70.0334 43.6747 69.8937 43.3577Z" fill="white"/>
<path d="M62.0502 48.0464C62.9937 47.5907 64.071 47.0213 65.0209 46.6223C65.9471 47.9938 67.1922 49.161 68.8677 49.4941C69.0017 49.5202 69.1363 49.5439 69.2711 49.5644C68.2746 50.1444 66.2401 50.7674 65.3381 51.4112C63.8818 50.6584 62.8798 49.4231 62.0502 48.0464Z" fill="white"/>
<path d="M78.1059 40.7313L79.0043 40.3619C80.126 42.7128 80.6308 44.2889 80.3244 46.9972C80.0965 49.0137 78.7046 51.1503 77.1109 52.3504C75.764 53.3652 73.3953 54.2469 71.6976 54.274C71.0071 54.2855 70.3734 54.1754 69.6824 54.0614C69.4834 54.0373 68.3467 53.7858 68.272 53.678C68.7729 53.5997 69.3459 53.807 69.8304 53.7778C75.0895 53.4663 79.3995 49.5194 78.8806 43.9977C78.7607 42.7246 78.5043 41.9624 78.1059 40.7313Z" fill="#4F0F98"/>
<path d="M61.0125 48.5108C61.1034 48.5467 62.1773 50.0952 62.4422 50.3571C62.4779 50.7343 62.5055 51.1679 62.505 51.5453C62.4987 55.6632 62.9434 59.9789 62.7519 64.0817C61.7179 64.6003 59.6625 65.4879 58.7831 66.0355C58.6522 66.1134 58.6053 66.1607 58.4533 66.1499C58.2551 65.9285 58.1634 65.2848 58.3067 65.1179C58.8476 64.489 60.6871 63.7793 61.4315 63.4425C61.2317 58.4664 61.0922 53.4891 61.0125 48.5108Z" fill="#4F0F98"/>
<path d="M38.8612 61.4474C39.0443 61.7852 39.2324 62.1199 39.4258 62.4521C39.5096 62.5854 39.6168 62.7592 39.694 62.8934C40.003 63.4305 38.88 64.2614 38.5275 64.5602C37.2458 65.6455 35.6794 66.3018 34.171 66.9975C34.9372 68.5093 35.6726 70.0359 36.3774 71.5772C35.5418 72.1577 33.2243 73.1884 32.1899 73.6751L31.7004 72.6634C32.8169 72.0573 33.94 71.5893 35.0989 71.078C34.3303 69.5554 33.5591 67.847 32.784 66.3716C35.1497 65.2331 37.0242 64.4572 38.4772 62.2022C38.6062 61.9247 38.7114 61.714 38.8612 61.4474Z" fill="#4F0F98"/>
<path d="M38.8615 61.4467C39.0447 61.7845 39.2328 62.1192 39.4261 62.4514C39.1854 62.3404 38.742 62.2301 38.4775 62.2016C38.6066 61.924 38.7118 61.7133 38.8615 61.4467Z" fill="#4F0F98"/>
<path d="M50.5176 54.2833C51.7127 54.5415 52.6582 56.8782 53.1368 57.8719C53.8912 59.4133 54.6275 60.9634 55.3458 62.5222C54.2213 63.1285 52.9805 63.7757 51.7772 64.2455C51.6299 64.3028 51.4494 64.1478 51.3078 64.0587C51.121 64.0579 51.0672 64.3442 50.9273 64.5132C49.7955 65.8842 48.2525 66.5015 46.5057 66.3359C45.8365 66.2893 45.2724 66.1338 44.6436 65.9286C45.9278 65.8383 47.5021 65.6347 48.485 64.7949C49.4325 63.9855 49.7655 63.9101 50.8868 63.4078C51.9374 62.9381 52.9679 62.4106 54.0475 61.9569C53.0387 59.7182 51.243 56.5068 50.5176 54.2833Z" fill="#4F0F98"/>
<path d="M66.9462 39.9153C68.471 38.9533 69.7164 38.8173 71.3861 39.5408C70.4356 39.5931 70.6369 39.3102 69.6882 39.7775C67.3672 40.9208 66.3689 42.6488 66.8609 45.2813C67.1391 46.6459 67.583 47.166 68.417 48.2231C66.386 47.5148 64.925 45.1488 65.1981 43.0097C65.3575 41.7871 65.9844 40.6774 66.9462 39.9153Z" fill="#4F0F98"/>
<path d="M73.9849 35.5488C74.3806 35.5281 75.0435 35.9843 75.4 36.2003C75.0129 37.2782 74.3536 39.1764 73.9237 40.1356C73.4079 39.9808 72.9739 39.8013 72.4755 39.6008C72.7293 38.7652 73.5839 36.2437 73.9849 35.5488Z" fill="#4F0F98"/>
<path d="M71.9717 46.6875C72.613 46.383 73.19 46.1102 73.8494 45.8494L73.4659 46.5434C73.1468 47.0545 72.9148 47.2476 72.4365 47.6099L71.9717 46.6875Z" fill="#4F0F98"/>
<path d="M37.5117 53.957C37.8166 54.0128 38.7426 54.6657 39.0824 54.884L38.9983 55.3077L38.7276 56.0029C38.377 55.2898 37.9704 54.6057 37.5117 53.957Z" fill="#4F0F98"/>
</g>
<defs>
<clipPath id="clip0_216_16164">
<rect width="64.4945" height="27.2241" fill="white" transform="translate(19 55.9375) rotate(-25.669)"/>
</clipPath>
</defs>
</svg>
