<svg width="202" height="173" viewBox="0 0 202 173" fill="none" xmlns="http://www.w3.org/2000/svg">
<path d="M25.1703 104.812C26.1127 123.56 33.9893 141.287 47.2703 154.552L29.3803 172.413C11.419 154.393 0.946907 130.24 0.0703125 104.812H25.1703Z" fill="#F25360"/>
<path d="M46.81 15.5156L59.44 37.4156C49.0568 44.1957 40.4966 53.421 34.511 64.2816C28.5253 75.1423 25.2972 87.3062 25.11 99.7056H0C0.217146 73.3198 10.7811 48.0732 29.42 29.3956C34.6777 24.1314 40.5111 19.4754 46.81 15.5156Z" fill="#FFCB3B"/>
<path d="M148.991 11.9662L136.381 33.8162C125.164 27.9106 112.645 24.9082 99.9692 25.0828C87.293 25.2575 74.8623 28.6037 63.8114 34.8162L51.1914 12.9562C66.1115 4.63087 82.8805 0.178182 99.9653 0.00523789C117.05 -0.167707 133.906 3.94459 148.991 11.9662Z" fill="#46C28F"/>
<path d="M172.461 172.434L154.581 154.554C162.676 146.461 168.834 136.641 172.595 125.83C176.356 115.019 177.622 103.497 176.297 92.1271C174.972 80.7573 171.092 69.8347 164.946 60.1776C158.801 50.5206 150.549 42.3795 140.811 36.3643L153.441 14.4844C160.353 18.6685 166.733 23.675 172.441 29.3943C211.701 68.6243 211.701 133.204 172.461 172.434Z" fill="#128E5B"/>
<path d="M171.168 59.9998L94.1202 101.56L101.898 112.535L171.168 59.9998Z" fill="#0F2B57"/>
<path d="M100.81 129.546C95.6554 129.546 90.6166 128.017 86.3308 125.153C82.0451 122.289 78.7049 118.219 76.7327 113.456C74.7606 108.694 74.2451 103.453 75.2515 98.3981C76.2578 93.3426 78.7408 88.6992 82.3864 85.055C86.0319 81.4109 90.6763 78.9297 95.7321 77.9253C100.788 76.9209 106.028 77.4384 110.79 79.4123C115.551 81.3863 119.621 84.7281 122.483 89.0149C125.345 93.3018 126.872 98.3412 126.87 103.496C126.862 110.404 124.114 117.027 119.228 121.911C114.342 126.795 107.718 129.541 100.81 129.546ZM100.81 79.4358C96.0514 79.4358 91.3997 80.8469 87.443 83.4906C83.4864 86.1344 80.4025 89.892 78.5815 94.2884C76.7605 98.6848 76.2839 103.522 77.2123 108.19C78.1407 112.857 80.4322 117.144 83.797 120.509C87.1619 123.874 91.449 126.165 96.1162 127.093C100.783 128.022 105.621 127.545 110.017 125.724C114.414 123.903 118.171 120.819 120.815 116.863C123.459 112.906 124.87 108.254 124.87 103.496C124.865 97.1163 122.328 90.9996 117.817 86.4886C113.306 81.9777 107.189 79.4411 100.81 79.4358Z" fill="#0D264D"/>
<path d="M100.801 117.504C108.539 117.504 114.811 111.232 114.811 103.494C114.811 95.7568 108.539 89.4844 100.801 89.4844C93.0635 89.4844 86.791 95.7568 86.791 103.494C86.791 111.232 93.0635 117.504 100.801 117.504Z" fill="#0F2B57"/>
</svg>