<svg width="24" height="32" viewBox="0 0 24 32" fill="none" xmlns="http://www.w3.org/2000/svg">
<path d="M7.30922 25.8184L6.75784 29.1366H5.65514L5.10352 25.8184V2.66863C5.10352 2.36411 5.35038 2.11719 5.65496 2.11719H6.75778C7.0623 2.11719 7.30922 2.36405 7.30922 2.66863V25.8184Z" fill="#D7D3E0"/>
<path d="M12.8229 25.8184L12.2715 29.1366H11.1688L10.6172 25.8184V2.66863C10.6172 2.36411 10.864 2.11719 11.1686 2.11719H12.2715C12.576 2.11719 12.8229 2.36405 12.8229 2.66863V25.8184Z" fill="#D7D3E0"/>
<path d="M18.3366 25.8184L17.7851 28.5852H16.6823L16.1309 25.8184V2.66863C16.1309 2.36411 16.3777 2.11719 16.6823 2.11719H17.7851C18.0896 2.11719 18.3366 2.36405 18.3366 2.66863V25.8184Z" fill="#D7D3E0"/>
<path d="M7.30865 25.8203L6.74071 30.364C6.67937 30.6095 6.45887 30.7817 6.20582 30.7817C5.95278 30.7817 5.73228 30.6095 5.67093 30.364L5.21875 25.8299" fill="#A7A1B2"/>
<path d="M16.1309 25.8203L16.6987 30.3653C16.7601 30.6108 16.9806 30.783 17.2337 30.783C17.4867 30.783 17.7073 30.6108 17.7686 30.3653L18.3365 25.8203H16.1309Z" fill="#A7A1B2"/>
<path d="M10.6172 25.8203L11.1851 30.3653C11.2464 30.6108 11.467 30.783 11.72 30.783C11.9731 30.783 12.1936 30.6108 12.255 30.3653L12.8228 25.8203H10.6172Z" fill="#A7A1B2"/>
<path d="M5.10282 1H18.3368C18.9459 1 19.4396 1.49372 19.4396 2.10282C19.4396 2.71192 18.9458 3.20564 18.3368 3.20564H5.10282C4.49372 3.20564 4 2.71192 4 2.10282C4 1.49379 4.49372 1 5.10282 1Z" fill="#A7A1B2"/>
</svg>